<?xml version="1.0" encoding="utf-8" standalone="no"?>
<!DOCTYPE svg PUBLIC "-//W3C//DTD SVG 1.1//EN"
  "http://www.w3.org/Graphics/SVG/1.1/DTD/svg11.dtd">
<svg height="345.6pt" version="1.1" viewBox="0 0 460.8 345.6" width="460.8pt" xmlns="http://www.w3.org/2000/svg" xmlns:xlink="http://www.w3.org/1999/xlink">
 <metadata>
  <rdf:RDF xmlns:cc="http://creativecommons.org/ns#" xmlns:dc="http://purl.org/dc/elements/1.1/" xmlns:rdf="http://www.w3.org/1999/02/22-rdf-syntax-ns#">
   <cc:Work>
    <dc:type rdf:resource="http://purl.org/dc/dcmitype/StillImage"/>
    <dc:date>2022-05-04T14:39:48.420166</dc:date>
    <dc:format>image/svg+xml</dc:format>
    <dc:creator>
     <cc:Agent>
      <dc:title>Matplotlib v3.4.3, https://matplotlib.org/</dc:title>
     </cc:Agent>
    </dc:creator>
   </cc:Work>
  </rdf:RDF>
 </metadata>
 <defs>
  <style type="text/css">*{stroke-linecap:butt;stroke-linejoin:round;}</style>
 </defs>
 <g id="figure_1">
  <g id="patch_1">
   <path d="M 0 345.6 
L 460.8 345.6 
L 460.8 0 
L 0 0 
z
" style="fill:#ffffff;"/>
  </g>
  <g id="axes_1">
   <g id="patch_2">
    <path d="M 57.6 307.584 
L 414.72 307.584 
L 414.72 41.472 
L 57.6 41.472 
z
" style="fill:#ffffff;"/>
   </g>
   <g id="PathCollection_1">
    <defs>
     <path d="M 0 3 
C 0.795609 3 1.55874 2.683901 2.12132 2.12132 
C 2.683901 1.55874 3 0.795609 3 0 
C 3 -0.795609 2.683901 -1.55874 2.12132 -2.12132 
C 1.55874 -2.683901 0.795609 -3 0 -3 
C -0.795609 -3 -1.55874 -2.683901 -2.12132 -2.12132 
C -2.683901 -1.55874 -3 -0.795609 -3 0 
C -3 0.795609 -2.683901 1.55874 -2.12132 2.12132 
C -1.55874 2.683901 -0.795609 3 0 3 
z
" id="ma7df542dbb" style="stroke:#ff0000;"/>
    </defs>
    <g clip-path="url(#pc98c305c14)">
     <use style="fill:#ff0000;stroke:#ff0000;" x="216.407253" xlink:href="#ma7df542dbb" y="65.664"/>
    </g>
   </g>
   <g id="matplotlib.axis_1">
    <g id="xtick_1">
     <g id="line2d_1">
      <path clip-path="url(#pc98c305c14)" d="M 57.6 307.584 
L 57.6 41.472 
" style="fill:none;stroke:#b0b0b0;stroke-linecap:square;stroke-width:0.8;"/>
     </g>
     <g id="line2d_2">
      <defs>
       <path d="M 0 0 
L 0 3.5 
" id="md1057fd844" style="stroke:#000000;stroke-width:0.8;"/>
      </defs>
      <g>
       <use style="stroke:#000000;stroke-width:0.8;" x="57.6" xlink:href="#md1057fd844" y="307.584"/>
      </g>
     </g>
     <g id="text_1">
      <!-- 0 -->
      <g transform="translate(54.41875 322.182437)scale(0.1 -0.1)">
       <defs>
        <path d="M 2034 4250 
Q 1547 4250 1301 3770 
Q 1056 3291 1056 2328 
Q 1056 1369 1301 889 
Q 1547 409 2034 409 
Q 2525 409 2770 889 
Q 3016 1369 3016 2328 
Q 3016 3291 2770 3770 
Q 2525 4250 2034 4250 
z
M 2034 4750 
Q 2819 4750 3233 4129 
Q 3647 3509 3647 2328 
Q 3647 1150 3233 529 
Q 2819 -91 2034 -91 
Q 1250 -91 836 529 
Q 422 1150 422 2328 
Q 422 3509 836 4129 
Q 1250 4750 2034 4750 
z
" id="DejaVuSans-30" transform="scale(0.015625)"/>
       </defs>
       <use xlink:href="#DejaVuSans-30"/>
      </g>
     </g>
    </g>
    <g id="xtick_2">
     <g id="line2d_3">
      <path clip-path="url(#pc98c305c14)" d="M 133.107442 307.584 
L 133.107442 41.472 
" style="fill:none;stroke:#b0b0b0;stroke-linecap:square;stroke-width:0.8;"/>
     </g>
     <g id="line2d_4">
      <g>
       <use style="stroke:#000000;stroke-width:0.8;" x="133.107442" xlink:href="#md1057fd844" y="307.584"/>
      </g>
     </g>
     <g id="text_2">
      <!-- 10 -->
      <g transform="translate(126.744942 322.182437)scale(0.1 -0.1)">
       <defs>
        <path d="M 794 531 
L 1825 531 
L 1825 4091 
L 703 3866 
L 703 4441 
L 1819 4666 
L 2450 4666 
L 2450 531 
L 3481 531 
L 3481 0 
L 794 0 
L 794 531 
z
" id="DejaVuSans-31" transform="scale(0.015625)"/>
       </defs>
       <use xlink:href="#DejaVuSans-31"/>
       <use x="63.623047" xlink:href="#DejaVuSans-30"/>
      </g>
     </g>
    </g>
    <g id="xtick_3">
     <g id="line2d_5">
      <path clip-path="url(#pc98c305c14)" d="M 208.614885 307.584 
L 208.614885 41.472 
" style="fill:none;stroke:#b0b0b0;stroke-linecap:square;stroke-width:0.8;"/>
     </g>
     <g id="line2d_6">
      <g>
       <use style="stroke:#000000;stroke-width:0.8;" x="208.614885" xlink:href="#md1057fd844" y="307.584"/>
      </g>
     </g>
     <g id="text_3">
      <!-- 20 -->
      <g transform="translate(202.252385 322.182437)scale(0.1 -0.1)">
       <defs>
        <path d="M 1228 531 
L 3431 531 
L 3431 0 
L 469 0 
L 469 531 
Q 828 903 1448 1529 
Q 2069 2156 2228 2338 
Q 2531 2678 2651 2914 
Q 2772 3150 2772 3378 
Q 2772 3750 2511 3984 
Q 2250 4219 1831 4219 
Q 1534 4219 1204 4116 
Q 875 4013 500 3803 
L 500 4441 
Q 881 4594 1212 4672 
Q 1544 4750 1819 4750 
Q 2544 4750 2975 4387 
Q 3406 4025 3406 3419 
Q 3406 3131 3298 2873 
Q 3191 2616 2906 2266 
Q 2828 2175 2409 1742 
Q 1991 1309 1228 531 
z
" id="DejaVuSans-32" transform="scale(0.015625)"/>
       </defs>
       <use xlink:href="#DejaVuSans-32"/>
       <use x="63.623047" xlink:href="#DejaVuSans-30"/>
      </g>
     </g>
    </g>
    <g id="xtick_4">
     <g id="line2d_7">
      <path clip-path="url(#pc98c305c14)" d="M 284.122327 307.584 
L 284.122327 41.472 
" style="fill:none;stroke:#b0b0b0;stroke-linecap:square;stroke-width:0.8;"/>
     </g>
     <g id="line2d_8">
      <g>
       <use style="stroke:#000000;stroke-width:0.8;" x="284.122327" xlink:href="#md1057fd844" y="307.584"/>
      </g>
     </g>
     <g id="text_4">
      <!-- 30 -->
      <g transform="translate(277.759827 322.182437)scale(0.1 -0.1)">
       <defs>
        <path d="M 2597 2516 
Q 3050 2419 3304 2112 
Q 3559 1806 3559 1356 
Q 3559 666 3084 287 
Q 2609 -91 1734 -91 
Q 1441 -91 1130 -33 
Q 819 25 488 141 
L 488 750 
Q 750 597 1062 519 
Q 1375 441 1716 441 
Q 2309 441 2620 675 
Q 2931 909 2931 1356 
Q 2931 1769 2642 2001 
Q 2353 2234 1838 2234 
L 1294 2234 
L 1294 2753 
L 1863 2753 
Q 2328 2753 2575 2939 
Q 2822 3125 2822 3475 
Q 2822 3834 2567 4026 
Q 2313 4219 1838 4219 
Q 1578 4219 1281 4162 
Q 984 4106 628 3988 
L 628 4550 
Q 988 4650 1302 4700 
Q 1616 4750 1894 4750 
Q 2613 4750 3031 4423 
Q 3450 4097 3450 3541 
Q 3450 3153 3228 2886 
Q 3006 2619 2597 2516 
z
" id="DejaVuSans-33" transform="scale(0.015625)"/>
       </defs>
       <use xlink:href="#DejaVuSans-33"/>
       <use x="63.623047" xlink:href="#DejaVuSans-30"/>
      </g>
     </g>
    </g>
    <g id="xtick_5">
     <g id="line2d_9">
      <path clip-path="url(#pc98c305c14)" d="M 359.62977 307.584 
L 359.62977 41.472 
" style="fill:none;stroke:#b0b0b0;stroke-linecap:square;stroke-width:0.8;"/>
     </g>
     <g id="line2d_10">
      <g>
       <use style="stroke:#000000;stroke-width:0.8;" x="359.62977" xlink:href="#md1057fd844" y="307.584"/>
      </g>
     </g>
     <g id="text_5">
      <!-- 40 -->
      <g transform="translate(353.26727 322.182437)scale(0.1 -0.1)">
       <defs>
        <path d="M 2419 4116 
L 825 1625 
L 2419 1625 
L 2419 4116 
z
M 2253 4666 
L 3047 4666 
L 3047 1625 
L 3713 1625 
L 3713 1100 
L 3047 1100 
L 3047 0 
L 2419 0 
L 2419 1100 
L 313 1100 
L 313 1709 
L 2253 4666 
z
" id="DejaVuSans-34" transform="scale(0.015625)"/>
       </defs>
       <use xlink:href="#DejaVuSans-34"/>
       <use x="63.623047" xlink:href="#DejaVuSans-30"/>
      </g>
     </g>
    </g>
    <g id="text_6">
     <!-- $Time$, $c$ -->
     <g transform="translate(217.81 335.860562)scale(0.1 -0.1)">
      <defs>
       <path d="M 378 4666 
L 4325 4666 
L 4225 4134 
L 2559 4134 
L 1759 0 
L 1125 0 
L 1925 4134 
L 275 4134 
L 378 4666 
z
" id="DejaVuSans-Oblique-54" transform="scale(0.015625)"/>
       <path d="M 1172 4863 
L 1747 4863 
L 1606 4134 
L 1031 4134 
L 1172 4863 
z
M 909 3500 
L 1484 3500 
L 800 0 
L 225 0 
L 909 3500 
z
" id="DejaVuSans-Oblique-69" transform="scale(0.015625)"/>
       <path d="M 5747 2113 
L 5338 0 
L 4763 0 
L 5166 2094 
Q 5191 2228 5203 2325 
Q 5216 2422 5216 2491 
Q 5216 2772 5059 2928 
Q 4903 3084 4622 3084 
Q 4203 3084 3875 2770 
Q 3547 2456 3450 1953 
L 3066 0 
L 2491 0 
L 2900 2094 
Q 2925 2209 2937 2307 
Q 2950 2406 2950 2484 
Q 2950 2769 2794 2926 
Q 2638 3084 2363 3084 
Q 1938 3084 1609 2770 
Q 1281 2456 1184 1953 
L 800 0 
L 225 0 
L 909 3500 
L 1484 3500 
L 1375 2956 
Q 1609 3263 1923 3423 
Q 2238 3584 2597 3584 
Q 2978 3584 3223 3384 
Q 3469 3184 3519 2828 
Q 3781 3197 4126 3390 
Q 4472 3584 4856 3584 
Q 5306 3584 5551 3325 
Q 5797 3066 5797 2591 
Q 5797 2488 5784 2364 
Q 5772 2241 5747 2113 
z
" id="DejaVuSans-Oblique-6d" transform="scale(0.015625)"/>
       <path d="M 3078 2063 
Q 3088 2113 3092 2166 
Q 3097 2219 3097 2272 
Q 3097 2653 2873 2875 
Q 2650 3097 2266 3097 
Q 1838 3097 1509 2826 
Q 1181 2556 1013 2059 
L 3078 2063 
z
M 3578 1613 
L 903 1613 
Q 884 1494 878 1425 
Q 872 1356 872 1306 
Q 872 872 1139 634 
Q 1406 397 1894 397 
Q 2269 397 2603 481 
Q 2938 566 3225 728 
L 3116 159 
Q 2806 34 2476 -28 
Q 2147 -91 1806 -91 
Q 1078 -91 686 257 
Q 294 606 294 1247 
Q 294 1794 489 2264 
Q 684 2734 1063 3103 
Q 1306 3334 1642 3459 
Q 1978 3584 2356 3584 
Q 2950 3584 3301 3228 
Q 3653 2872 3653 2272 
Q 3653 2128 3634 1964 
Q 3616 1800 3578 1613 
z
" id="DejaVuSans-Oblique-65" transform="scale(0.015625)"/>
       <path d="M 750 794 
L 1409 794 
L 1409 256 
L 897 -744 
L 494 -744 
L 750 256 
L 750 794 
z
" id="DejaVuSans-2c" transform="scale(0.015625)"/>
       <path id="DejaVuSans-20" transform="scale(0.015625)"/>
       <path d="M 3431 3366 
L 3316 2797 
Q 3109 2947 2876 3022 
Q 2644 3097 2394 3097 
Q 2119 3097 1870 3000 
Q 1622 2903 1453 2725 
Q 1184 2453 1037 2087 
Q 891 1722 891 1331 
Q 891 859 1127 628 
Q 1363 397 1844 397 
Q 2081 397 2348 469 
Q 2616 541 2906 684 
L 2797 116 
Q 2547 13 2283 -39 
Q 2019 -91 1741 -91 
Q 1044 -91 669 257 
Q 294 606 294 1253 
Q 294 1797 489 2255 
Q 684 2713 1069 3078 
Q 1331 3328 1684 3456 
Q 2038 3584 2456 3584 
Q 2700 3584 2940 3529 
Q 3181 3475 3431 3366 
z
" id="DejaVuSans-Oblique-63" transform="scale(0.015625)"/>
      </defs>
      <use transform="translate(0 0.015625)" xlink:href="#DejaVuSans-Oblique-54"/>
      <use transform="translate(61.083984 0.015625)" xlink:href="#DejaVuSans-Oblique-69"/>
      <use transform="translate(88.867188 0.015625)" xlink:href="#DejaVuSans-Oblique-6d"/>
      <use transform="translate(186.279297 0.015625)" xlink:href="#DejaVuSans-Oblique-65"/>
      <use transform="translate(247.802734 0.015625)" xlink:href="#DejaVuSans-2c"/>
      <use transform="translate(279.589844 0.015625)" xlink:href="#DejaVuSans-20"/>
      <use transform="translate(311.376953 0.015625)" xlink:href="#DejaVuSans-Oblique-63"/>
     </g>
    </g>
   </g>
   <g id="matplotlib.axis_2">
    <g id="ytick_1">
     <g id="line2d_11">
      <path clip-path="url(#pc98c305c14)" d="M 57.6 307.584 
L 414.72 307.584 
" style="fill:none;stroke:#b0b0b0;stroke-linecap:square;stroke-width:0.8;"/>
     </g>
     <g id="line2d_12">
      <defs>
       <path d="M 0 0 
L -3.5 0 
" id="mf7741e2c30" style="stroke:#000000;stroke-width:0.8;"/>
      </defs>
      <g>
       <use style="stroke:#000000;stroke-width:0.8;" x="57.6" xlink:href="#mf7741e2c30" y="307.584"/>
      </g>
     </g>
     <g id="text_7">
      <!-- 0.0 -->
      <g transform="translate(34.696875 311.383219)scale(0.1 -0.1)">
       <defs>
        <path d="M 684 794 
L 1344 794 
L 1344 0 
L 684 0 
L 684 794 
z
" id="DejaVuSans-2e" transform="scale(0.015625)"/>
       </defs>
       <use xlink:href="#DejaVuSans-30"/>
       <use x="63.623047" xlink:href="#DejaVuSans-2e"/>
       <use x="95.410156" xlink:href="#DejaVuSans-30"/>
      </g>
     </g>
    </g>
    <g id="ytick_2">
     <g id="line2d_13">
      <path clip-path="url(#pc98c305c14)" d="M 57.6 261.989322 
L 414.72 261.989322 
" style="fill:none;stroke:#b0b0b0;stroke-linecap:square;stroke-width:0.8;"/>
     </g>
     <g id="line2d_14">
      <g>
       <use style="stroke:#000000;stroke-width:0.8;" x="57.6" xlink:href="#mf7741e2c30" y="261.989322"/>
      </g>
     </g>
     <g id="text_8">
      <!-- 0.5 -->
      <g transform="translate(34.696875 265.78854)scale(0.1 -0.1)">
       <defs>
        <path d="M 691 4666 
L 3169 4666 
L 3169 4134 
L 1269 4134 
L 1269 2991 
Q 1406 3038 1543 3061 
Q 1681 3084 1819 3084 
Q 2600 3084 3056 2656 
Q 3513 2228 3513 1497 
Q 3513 744 3044 326 
Q 2575 -91 1722 -91 
Q 1428 -91 1123 -41 
Q 819 9 494 109 
L 494 744 
Q 775 591 1075 516 
Q 1375 441 1709 441 
Q 2250 441 2565 725 
Q 2881 1009 2881 1497 
Q 2881 1984 2565 2268 
Q 2250 2553 1709 2553 
Q 1456 2553 1204 2497 
Q 953 2441 691 2322 
L 691 4666 
z
" id="DejaVuSans-35" transform="scale(0.015625)"/>
       </defs>
       <use xlink:href="#DejaVuSans-30"/>
       <use x="63.623047" xlink:href="#DejaVuSans-2e"/>
       <use x="95.410156" xlink:href="#DejaVuSans-35"/>
      </g>
     </g>
    </g>
    <g id="ytick_3">
     <g id="line2d_15">
      <path clip-path="url(#pc98c305c14)" d="M 57.6 216.394643 
L 414.72 216.394643 
" style="fill:none;stroke:#b0b0b0;stroke-linecap:square;stroke-width:0.8;"/>
     </g>
     <g id="line2d_16">
      <g>
       <use style="stroke:#000000;stroke-width:0.8;" x="57.6" xlink:href="#mf7741e2c30" y="216.394643"/>
      </g>
     </g>
     <g id="text_9">
      <!-- 1.0 -->
      <g transform="translate(34.696875 220.193862)scale(0.1 -0.1)">
       <use xlink:href="#DejaVuSans-31"/>
       <use x="63.623047" xlink:href="#DejaVuSans-2e"/>
       <use x="95.410156" xlink:href="#DejaVuSans-30"/>
      </g>
     </g>
    </g>
    <g id="ytick_4">
     <g id="line2d_17">
      <path clip-path="url(#pc98c305c14)" d="M 57.6 170.799965 
L 414.72 170.799965 
" style="fill:none;stroke:#b0b0b0;stroke-linecap:square;stroke-width:0.8;"/>
     </g>
     <g id="line2d_18">
      <g>
       <use style="stroke:#000000;stroke-width:0.8;" x="57.6" xlink:href="#mf7741e2c30" y="170.799965"/>
      </g>
     </g>
     <g id="text_10">
      <!-- 1.5 -->
      <g transform="translate(34.696875 174.599183)scale(0.1 -0.1)">
       <use xlink:href="#DejaVuSans-31"/>
       <use x="63.623047" xlink:href="#DejaVuSans-2e"/>
       <use x="95.410156" xlink:href="#DejaVuSans-35"/>
      </g>
     </g>
    </g>
    <g id="ytick_5">
     <g id="line2d_19">
      <path clip-path="url(#pc98c305c14)" d="M 57.6 125.205286 
L 414.72 125.205286 
" style="fill:none;stroke:#b0b0b0;stroke-linecap:square;stroke-width:0.8;"/>
     </g>
     <g id="line2d_20">
      <g>
       <use style="stroke:#000000;stroke-width:0.8;" x="57.6" xlink:href="#mf7741e2c30" y="125.205286"/>
      </g>
     </g>
     <g id="text_11">
      <!-- 2.0 -->
      <g transform="translate(34.696875 129.004505)scale(0.1 -0.1)">
       <use xlink:href="#DejaVuSans-32"/>
       <use x="63.623047" xlink:href="#DejaVuSans-2e"/>
       <use x="95.410156" xlink:href="#DejaVuSans-30"/>
      </g>
     </g>
    </g>
    <g id="ytick_6">
     <g id="line2d_21">
      <path clip-path="url(#pc98c305c14)" d="M 57.6 79.610608 
L 414.72 79.610608 
" style="fill:none;stroke:#b0b0b0;stroke-linecap:square;stroke-width:0.8;"/>
     </g>
     <g id="line2d_22">
      <g>
       <use style="stroke:#000000;stroke-width:0.8;" x="57.6" xlink:href="#mf7741e2c30" y="79.610608"/>
      </g>
     </g>
     <g id="text_12">
      <!-- 2.5 -->
      <g transform="translate(34.696875 83.409826)scale(0.1 -0.1)">
       <use xlink:href="#DejaVuSans-32"/>
       <use x="63.623047" xlink:href="#DejaVuSans-2e"/>
       <use x="95.410156" xlink:href="#DejaVuSans-35"/>
      </g>
     </g>
    </g>
    <g id="text_13">
     <!-- Voltage, $V$ -->
     <g transform="translate(28.596875 200.278)rotate(-90)scale(0.1 -0.1)">
      <defs>
       <path d="M 1831 0 
L 50 4666 
L 709 4666 
L 2188 738 
L 3669 4666 
L 4325 4666 
L 2547 0 
L 1831 0 
z
" id="DejaVuSans-56" transform="scale(0.015625)"/>
       <path d="M 1959 3097 
Q 1497 3097 1228 2736 
Q 959 2375 959 1747 
Q 959 1119 1226 758 
Q 1494 397 1959 397 
Q 2419 397 2687 759 
Q 2956 1122 2956 1747 
Q 2956 2369 2687 2733 
Q 2419 3097 1959 3097 
z
M 1959 3584 
Q 2709 3584 3137 3096 
Q 3566 2609 3566 1747 
Q 3566 888 3137 398 
Q 2709 -91 1959 -91 
Q 1206 -91 779 398 
Q 353 888 353 1747 
Q 353 2609 779 3096 
Q 1206 3584 1959 3584 
z
" id="DejaVuSans-6f" transform="scale(0.015625)"/>
       <path d="M 603 4863 
L 1178 4863 
L 1178 0 
L 603 0 
L 603 4863 
z
" id="DejaVuSans-6c" transform="scale(0.015625)"/>
       <path d="M 1172 4494 
L 1172 3500 
L 2356 3500 
L 2356 3053 
L 1172 3053 
L 1172 1153 
Q 1172 725 1289 603 
Q 1406 481 1766 481 
L 2356 481 
L 2356 0 
L 1766 0 
Q 1100 0 847 248 
Q 594 497 594 1153 
L 594 3053 
L 172 3053 
L 172 3500 
L 594 3500 
L 594 4494 
L 1172 4494 
z
" id="DejaVuSans-74" transform="scale(0.015625)"/>
       <path d="M 2194 1759 
Q 1497 1759 1228 1600 
Q 959 1441 959 1056 
Q 959 750 1161 570 
Q 1363 391 1709 391 
Q 2188 391 2477 730 
Q 2766 1069 2766 1631 
L 2766 1759 
L 2194 1759 
z
M 3341 1997 
L 3341 0 
L 2766 0 
L 2766 531 
Q 2569 213 2275 61 
Q 1981 -91 1556 -91 
Q 1019 -91 701 211 
Q 384 513 384 1019 
Q 384 1609 779 1909 
Q 1175 2209 1959 2209 
L 2766 2209 
L 2766 2266 
Q 2766 2663 2505 2880 
Q 2244 3097 1772 3097 
Q 1472 3097 1187 3025 
Q 903 2953 641 2809 
L 641 3341 
Q 956 3463 1253 3523 
Q 1550 3584 1831 3584 
Q 2591 3584 2966 3190 
Q 3341 2797 3341 1997 
z
" id="DejaVuSans-61" transform="scale(0.015625)"/>
       <path d="M 2906 1791 
Q 2906 2416 2648 2759 
Q 2391 3103 1925 3103 
Q 1463 3103 1205 2759 
Q 947 2416 947 1791 
Q 947 1169 1205 825 
Q 1463 481 1925 481 
Q 2391 481 2648 825 
Q 2906 1169 2906 1791 
z
M 3481 434 
Q 3481 -459 3084 -895 
Q 2688 -1331 1869 -1331 
Q 1566 -1331 1297 -1286 
Q 1028 -1241 775 -1147 
L 775 -588 
Q 1028 -725 1275 -790 
Q 1522 -856 1778 -856 
Q 2344 -856 2625 -561 
Q 2906 -266 2906 331 
L 2906 616 
Q 2728 306 2450 153 
Q 2172 0 1784 0 
Q 1141 0 747 490 
Q 353 981 353 1791 
Q 353 2603 747 3093 
Q 1141 3584 1784 3584 
Q 2172 3584 2450 3431 
Q 2728 3278 2906 2969 
L 2906 3500 
L 3481 3500 
L 3481 434 
z
" id="DejaVuSans-67" transform="scale(0.015625)"/>
       <path d="M 3597 1894 
L 3597 1613 
L 953 1613 
Q 991 1019 1311 708 
Q 1631 397 2203 397 
Q 2534 397 2845 478 
Q 3156 559 3463 722 
L 3463 178 
Q 3153 47 2828 -22 
Q 2503 -91 2169 -91 
Q 1331 -91 842 396 
Q 353 884 353 1716 
Q 353 2575 817 3079 
Q 1281 3584 2069 3584 
Q 2775 3584 3186 3129 
Q 3597 2675 3597 1894 
z
M 3022 2063 
Q 3016 2534 2758 2815 
Q 2500 3097 2075 3097 
Q 1594 3097 1305 2825 
Q 1016 2553 972 2059 
L 3022 2063 
z
" id="DejaVuSans-65" transform="scale(0.015625)"/>
       <path d="M 1319 0 
L 500 4666 
L 1119 4666 
L 1797 653 
L 4063 4666 
L 4750 4666 
L 2053 0 
L 1319 0 
z
" id="DejaVuSans-Oblique-56" transform="scale(0.015625)"/>
      </defs>
      <use transform="translate(0 0.015625)" xlink:href="#DejaVuSans-56"/>
      <use transform="translate(68.408203 0.015625)" xlink:href="#DejaVuSans-6f"/>
      <use transform="translate(129.589844 0.015625)" xlink:href="#DejaVuSans-6c"/>
      <use transform="translate(157.373047 0.015625)" xlink:href="#DejaVuSans-74"/>
      <use transform="translate(196.582031 0.015625)" xlink:href="#DejaVuSans-61"/>
      <use transform="translate(257.861328 0.015625)" xlink:href="#DejaVuSans-67"/>
      <use transform="translate(321.337891 0.015625)" xlink:href="#DejaVuSans-65"/>
      <use transform="translate(382.861328 0.015625)" xlink:href="#DejaVuSans-2c"/>
      <use transform="translate(414.648438 0.015625)" xlink:href="#DejaVuSans-20"/>
      <use transform="translate(446.435547 0.015625)" xlink:href="#DejaVuSans-Oblique-56"/>
     </g>
    </g>
   </g>
   <g id="line2d_23">
    <path clip-path="url(#pc98c305c14)" d="M 57.6 307.584 
L 57.963222 307.584 
L 58.035867 306.403902 
L 58.108511 307.584 
L 58.326444 305.223805 
L 58.399089 305.223805 
L 58.471733 306.403902 
L 58.689666 304.043707 
L 59.052889 304.043707 
L 59.270822 301.683512 
L 59.343466 301.683512 
L 59.416111 300.503415 
L 59.5614 301.683512 
L 59.706688 300.503415 
L 59.779333 300.503415 
L 59.924622 299.323317 
L 60.06991 299.323317 
L 60.215199 298.14322 
L 60.360488 299.323317 
L 60.578421 296.963122 
L 60.651066 298.14322 
L 60.72371 295.783024 
L 60.796355 296.963122 
L 60.868999 295.783024 
L 60.941644 296.963122 
L 61.086932 295.783024 
L 61.232221 295.783024 
L 61.450155 293.422829 
L 61.522799 293.422829 
L 61.668088 292.242732 
L 61.813377 292.242732 
L 61.886021 291.062634 
L 62.03131 292.242732 
L 62.103954 292.242732 
L 62.249243 291.062634 
L 62.394532 291.062634 
L 62.539821 289.882537 
L 62.757754 289.882537 
L 62.903043 287.522341 
L 62.975688 288.702439 
L 63.120976 287.522341 
L 63.411554 287.522341 
L 63.629487 285.162146 
L 63.920065 285.162146 
L 64.065354 283.982049 
L 64.137998 285.162146 
L 64.283287 282.801951 
L 64.501221 282.801951 
L 64.646509 281.621854 
L 64.937087 281.621854 
L 65.082376 279.261659 
L 65.15502 280.441756 
L 65.300309 279.261659 
L 65.372954 279.261659 
L 65.445598 280.441756 
L 65.663531 278.081561 
L 65.80882 278.081561 
L 65.954109 276.901463 
L 66.026753 276.901463 
L 66.099398 275.721366 
L 66.244687 276.901463 
L 66.389976 274.541268 
L 66.46262 275.721366 
L 66.607909 274.541268 
L 66.680553 274.541268 
L 66.753198 273.361171 
L 66.825842 274.541268 
L 66.971131 272.181073 
L 67.043775 273.361171 
L 67.261709 271.000976 
L 67.334353 272.181073 
L 67.479642 271.000976 
L 67.915509 271.000976 
L 67.988153 269.820878 
L 68.133442 271.000976 
L 68.351375 267.460683 
L 68.42402 266.280585 
L 68.569308 267.460683 
L 68.859886 267.460683 
L 69.005175 266.280585 
L 69.150464 266.280585 
L 69.295753 265.100488 
L 69.513686 265.100488 
L 69.658975 263.92039 
L 69.804264 263.92039 
L 69.949552 261.560195 
L 70.094841 263.92039 
L 70.312775 261.560195 
L 70.675997 261.560195 
L 70.748641 260.380098 
L 70.821286 261.560195 
L 70.89393 259.2 
L 70.966574 260.380098 
L 71.111863 259.2 
L 71.402441 259.2 
L 71.54773 256.839805 
L 71.620374 256.839805 
L 71.693019 258.019902 
L 71.838308 256.839805 
L 71.983596 256.839805 
L 72.128885 255.659707 
L 72.419463 255.659707 
L 72.637396 253.299512 
L 72.782685 254.47961 
L 72.927974 253.299512 
L 73.073263 253.299512 
L 73.145907 252.119415 
L 73.218552 253.299512 
L 73.436485 250.939317 
L 73.509129 252.119415 
L 73.581774 250.939317 
L 73.654418 252.119415 
L 73.872352 249.75922 
L 74.308218 249.75922 
L 74.453507 248.579122 
L 74.526151 249.75922 
L 74.67144 247.399024 
L 75.034662 247.399024 
L 75.252596 245.038829 
L 75.397884 246.218927 
L 75.543173 246.218927 
L 75.688462 243.858732 
L 75.761107 245.038829 
L 75.906395 243.858732 
L 76.124329 243.858732 
L 76.196973 242.678634 
L 76.269618 243.858732 
L 76.414906 242.678634 
L 76.560195 242.678634 
L 76.705484 241.498537 
L 76.778129 242.678634 
L 76.923417 240.318439 
L 77.141351 240.318439 
L 77.28664 239.138341 
L 77.504573 239.138341 
L 77.577217 240.318439 
L 77.722506 237.958244 
L 77.867795 239.138341 
L 78.013084 237.958244 
L 78.231017 237.958244 
L 78.376306 236.778146 
L 78.521595 236.778146 
L 78.739528 234.417951 
L 78.884817 235.598049 
L 78.957461 234.417951 
L 79.030106 235.598049 
L 79.175395 234.417951 
L 79.320683 234.417951 
L 79.465972 233.237854 
L 80.628283 233.237854 
L 80.773572 230.877659 
L 80.918861 230.877659 
L 80.991505 228.517463 
L 81.06415 229.697561 
L 81.136794 229.697561 
L 81.282083 228.517463 
L 81.427372 228.517463 
L 81.500016 227.337366 
L 81.572661 228.517463 
L 81.71795 226.157268 
L 81.863238 227.337366 
L 81.935883 227.337366 
L 82.081172 226.157268 
L 82.299105 226.157268 
L 82.371749 224.977171 
L 82.517038 226.157268 
L 82.662327 224.977171 
L 82.734972 224.977171 
L 82.807616 223.797073 
L 82.88026 224.977171 
L 83.025549 223.797073 
L 83.170838 223.797073 
L 83.243483 222.616976 
L 83.388771 223.797073 
L 83.53406 222.616976 
L 83.679349 222.616976 
L 83.824638 220.25678 
L 83.969927 221.436878 
L 84.042571 221.436878 
L 84.115216 220.25678 
L 84.18786 221.436878 
L 84.260504 220.25678 
L 84.333149 221.436878 
L 84.551082 219.076683 
L 84.623727 220.25678 
L 84.769015 219.076683 
L 85.059593 219.076683 
L 85.204882 217.896585 
L 85.277526 217.896585 
L 85.350171 216.716488 
L 85.422815 217.896585 
L 85.49546 216.716488 
L 85.640749 217.896585 
L 85.786037 216.716488 
L 85.858682 216.716488 
L 86.076615 214.356293 
L 86.221904 215.53639 
L 86.367193 214.356293 
L 86.948348 214.356293 
L 87.093637 213.176195 
L 87.166282 213.176195 
L 87.238926 211.996098 
L 87.31157 213.176195 
L 87.456859 211.996098 
L 87.529504 211.996098 
L 87.602148 210.816 
L 87.674793 211.996098 
L 87.820081 210.816 
L 87.892726 211.996098 
L 88.038015 210.816 
L 88.183303 210.816 
L 88.328592 209.635902 
L 88.401237 210.816 
L 88.546526 208.455805 
L 88.691814 209.635902 
L 88.764459 209.635902 
L 88.837103 208.455805 
L 88.909748 209.635902 
L 89.127681 207.275707 
L 89.200325 208.455805 
L 89.345614 207.275707 
L 89.418259 208.455805 
L 89.490903 206.09561 
L 89.563548 207.275707 
L 89.781481 207.275707 
L 89.854125 204.915512 
L 89.92677 206.09561 
L 89.999414 206.09561 
L 90.072059 204.915512 
L 90.217347 206.09561 
L 90.289992 203.735415 
L 90.362636 204.915512 
L 90.507925 203.735415 
L 90.653214 203.735415 
L 90.725858 204.915512 
L 90.871147 203.735415 
L 91.089081 203.735415 
L 91.161725 202.555317 
L 91.307014 203.735415 
L 91.524947 201.37522 
L 91.670236 201.37522 
L 91.74288 200.195122 
L 91.815525 201.37522 
L 91.960814 200.195122 
L 92.033458 201.37522 
L 92.178747 200.195122 
L 92.251391 201.37522 
L 92.39668 199.015024 
L 92.469325 200.195122 
L 92.541969 199.015024 
L 92.614614 200.195122 
L 92.759902 199.015024 
L 92.905191 199.015024 
L 92.977836 200.195122 
L 93.268413 196.654829 
L 93.341058 196.654829 
L 93.486347 197.834927 
L 93.631635 197.834927 
L 93.776924 196.654829 
L 93.994858 196.654829 
L 94.067502 195.474732 
L 94.140146 196.654829 
L 94.285435 195.474732 
L 94.430724 195.474732 
L 94.576013 194.294634 
L 94.939235 194.294634 
L 95.084524 193.114537 
L 95.157168 194.294634 
L 95.302457 193.114537 
L 95.520391 193.114537 
L 95.665679 191.934439 
L 95.738324 193.114537 
L 95.810968 191.934439 
L 95.883613 193.114537 
L 96.028902 191.934439 
L 96.17419 191.934439 
L 96.319479 190.754341 
L 96.537413 190.754341 
L 96.610057 191.934439 
L 96.755346 190.754341 
L 96.82799 190.754341 
L 96.900635 189.574244 
L 96.973279 190.754341 
L 97.118568 188.394146 
L 97.191212 189.574244 
L 97.263857 188.394146 
L 97.336501 189.574244 
L 97.48179 188.394146 
L 97.554434 188.394146 
L 97.627079 187.214049 
L 97.772368 188.394146 
L 97.917657 187.214049 
L 98.208234 187.214049 
L 98.353523 186.033951 
L 98.426168 186.033951 
L 98.498812 187.214049 
L 98.644101 184.853854 
L 98.78939 186.033951 
L 98.934679 186.033951 
L 99.079967 184.853854 
L 99.297901 184.853854 
L 99.44319 183.673756 
L 99.515834 184.853854 
L 99.661123 183.673756 
L 99.879056 183.673756 
L 99.951701 182.493659 
L 100.024345 183.673756 
L 100.169634 182.493659 
L 100.242278 183.673756 
L 100.460212 181.313561 
L 100.532856 181.313561 
L 100.6055 182.493659 
L 100.750789 180.133463 
L 100.896078 181.313561 
L 101.041367 180.133463 
L 101.114011 181.313561 
L 101.2593 180.133463 
L 101.331945 181.313561 
L 101.477234 180.133463 
L 101.695167 180.133463 
L 101.840456 178.953366 
L 101.985745 178.953366 
L 102.058389 177.773268 
L 102.203678 178.953366 
L 102.348967 177.773268 
L 102.712189 177.773268 
L 102.784833 176.593171 
L 102.857478 177.773268 
L 103.002766 176.593171 
L 103.075411 176.593171 
L 103.148055 175.413073 
L 103.2207 176.593171 
L 103.365989 175.413073 
L 103.438633 175.413073 
L 103.583922 174.232976 
L 103.729211 175.413073 
L 103.801855 175.413073 
L 103.8745 174.232976 
L 103.947144 175.413073 
L 104.019788 174.232976 
L 104.092433 175.413073 
L 104.237722 173.052878 
L 104.310366 175.413073 
L 104.383011 173.052878 
L 104.455655 174.232976 
L 104.600944 174.232976 
L 104.673588 173.052878 
L 104.746233 174.232976 
L 104.964166 171.87278 
L 105.109455 171.87278 
L 105.182099 173.052878 
L 105.327388 171.87278 
L 105.472677 171.87278 
L 105.545321 170.692683 
L 105.617966 171.87278 
L 105.69061 170.692683 
L 105.835899 171.87278 
L 105.981188 170.692683 
L 106.126477 170.692683 
L 106.199121 168.332488 
L 106.271766 170.692683 
L 106.34441 169.512585 
L 106.780277 169.512585 
L 106.925566 168.332488 
L 106.99821 168.332488 
L 107.070854 169.512585 
L 107.216143 168.332488 
L 107.288788 169.512585 
L 107.579365 165.972293 
L 107.724654 167.15239 
L 107.797299 167.15239 
L 107.869943 165.972293 
L 107.942587 167.15239 
L 108.015232 165.972293 
L 108.160521 167.15239 
L 108.233165 167.15239 
L 108.30581 165.972293 
L 108.378454 167.15239 
L 108.523743 164.792195 
L 108.596387 165.972293 
L 108.669032 164.792195 
L 108.741676 165.972293 
L 108.886965 164.792195 
L 108.959609 164.792195 
L 109.032254 165.972293 
L 109.250187 163.612098 
L 109.322832 164.792195 
L 109.395476 163.612098 
L 109.540765 164.792195 
L 109.686054 163.612098 
L 109.903987 163.612098 
L 109.976631 162.432 
L 110.12192 163.612098 
L 110.267209 162.432 
L 110.339854 163.612098 
L 110.557787 161.251902 
L 110.630431 162.432 
L 110.77572 161.251902 
L 110.848365 162.432 
L 110.993653 160.071805 
L 111.066298 161.251902 
L 111.138942 160.071805 
L 111.211587 161.251902 
L 111.356876 160.071805 
L 111.647453 160.071805 
L 111.720098 158.891707 
L 111.865386 160.071805 
L 111.938031 160.071805 
L 112.08332 158.891707 
L 112.228609 158.891707 
L 112.301253 157.71161 
L 112.373897 158.891707 
L 112.446542 157.71161 
L 112.591831 158.891707 
L 112.664475 157.71161 
L 112.809764 158.891707 
L 112.955053 157.71161 
L 113.390919 157.71161 
L 113.463564 156.531512 
L 113.608853 157.71161 
L 113.754142 156.531512 
L 113.89943 156.531512 
L 113.972075 155.351415 
L 114.117364 156.531512 
L 114.190008 155.351415 
L 114.262653 156.531512 
L 114.335297 155.351415 
L 114.480586 156.531512 
L 114.55323 154.171317 
L 114.625875 155.351415 
L 114.698519 155.351415 
L 114.916452 152.99122 
L 115.061741 154.171317 
L 115.134386 154.171317 
L 115.20703 152.99122 
L 115.352319 154.171317 
L 115.497608 152.99122 
L 115.570252 154.171317 
L 115.642897 152.99122 
L 115.788186 154.171317 
L 115.933474 152.99122 
L 116.006119 152.99122 
L 116.078763 151.811122 
L 116.224052 152.99122 
L 116.369341 151.811122 
L 116.441985 151.811122 
L 116.51463 152.99122 
L 116.659919 151.811122 
L 116.732563 151.811122 
L 116.805207 150.631024 
L 116.877852 151.811122 
L 117.023141 150.631024 
L 117.095785 150.631024 
L 117.16843 151.811122 
L 117.386363 149.450927 
L 117.531652 150.631024 
L 117.676941 150.631024 
L 117.822229 149.450927 
L 118.112807 149.450927 
L 118.185452 148.270829 
L 118.33074 149.450927 
L 118.403385 148.270829 
L 118.476029 149.450927 
L 118.621318 148.270829 
L 118.911896 148.270829 
L 118.98454 147.090732 
L 119.129829 148.270829 
L 119.202474 148.270829 
L 119.347762 147.090732 
L 119.420407 148.270829 
L 119.493051 147.090732 
L 119.565696 148.270829 
L 119.710985 145.910634 
L 119.856273 147.090732 
L 119.928918 147.090732 
L 120.074207 145.910634 
L 120.219496 147.090732 
L 120.29214 144.730537 
L 120.364784 145.910634 
L 120.655362 145.910634 
L 120.800651 144.730537 
L 121.527095 144.730537 
L 121.672384 143.550439 
L 121.745028 143.550439 
L 121.817673 142.370341 
L 121.962962 143.550439 
L 122.035606 143.550439 
L 122.180895 142.370341 
L 122.326184 143.550439 
L 122.471473 142.370341 
L 122.544117 143.550439 
L 122.76205 141.190244 
L 122.907339 141.190244 
L 122.979984 142.370341 
L 123.125273 141.190244 
L 123.197917 142.370341 
L 123.343206 140.010146 
L 123.488495 141.190244 
L 123.633784 141.190244 
L 123.706428 140.010146 
L 123.779072 141.190244 
L 123.851717 140.010146 
L 123.924361 141.190244 
L 124.142295 138.830049 
L 124.287583 140.010146 
L 124.360228 138.830049 
L 124.505517 140.010146 
L 124.650806 140.010146 
L 124.796094 138.830049 
L 125.522539 138.830049 
L 125.667828 137.649951 
L 125.813116 138.830049 
L 125.958405 137.649951 
L 126.103694 137.649951 
L 126.176338 136.469854 
L 126.321627 137.649951 
L 126.466916 136.469854 
L 126.539561 136.469854 
L 126.612205 137.649951 
L 126.830138 135.289756 
L 126.975427 136.469854 
L 127.048072 136.469854 
L 127.19336 135.289756 
L 127.84716 135.289756 
L 127.919805 134.109659 
L 127.992449 135.289756 
L 128.065094 134.109659 
L 128.137738 135.289756 
L 128.283027 134.109659 
L 128.355671 135.289756 
L 128.50096 134.109659 
L 128.791538 134.109659 
L 128.936827 132.929561 
L 129.009471 134.109659 
L 129.082116 131.749463 
L 129.15476 132.929561 
L 129.227404 132.929561 
L 129.300049 131.749463 
L 129.372693 132.929561 
L 129.445338 131.749463 
L 129.517982 132.929561 
L 129.590627 131.749463 
L 129.735915 132.929561 
L 129.881204 131.749463 
L 130.099138 131.749463 
L 130.171782 130.569366 
L 130.317071 131.749463 
L 130.389715 131.749463 
L 130.535004 130.569366 
L 130.680293 130.569366 
L 130.752937 131.749463 
L 130.825582 129.389268 
L 130.898226 131.749463 
L 130.970871 130.569366 
L 131.043515 130.569366 
L 131.116159 131.749463 
L 131.334093 129.389268 
L 131.406737 130.569366 
L 131.552026 128.209171 
L 131.62467 129.389268 
L 131.697315 128.209171 
L 131.769959 129.389268 
L 131.987893 127.029073 
L 132.060537 128.209171 
L 132.133181 127.029073 
L 132.205826 129.389268 
L 132.27847 128.209171 
L 132.641692 128.209171 
L 132.714337 127.029073 
L 132.786981 128.209171 
L 132.859626 127.029073 
L 133.004915 128.209171 
L 133.077559 127.029073 
L 133.150203 128.209171 
L 133.295492 127.029073 
L 134.094581 127.029073 
L 134.23987 125.848976 
L 134.312514 125.848976 
L 134.385159 127.029073 
L 134.457803 125.848976 
L 134.530448 127.029073 
L 134.748381 124.668878 
L 134.966314 124.668878 
L 135.038959 125.848976 
L 135.184247 124.668878 
L 135.256892 124.668878 
L 135.329536 123.48878 
L 135.474825 124.668878 
L 135.547469 123.48878 
L 135.620114 124.668878 
L 135.692758 123.48878 
L 135.838047 124.668878 
L 135.910692 124.668878 
L 136.05598 123.48878 
L 136.491847 123.48878 
L 136.637136 122.308683 
L 136.782425 122.308683 
L 136.927714 123.48878 
L 137.000358 122.308683 
L 137.073002 123.48878 
L 137.218291 122.308683 
L 137.508869 122.308683 
L 137.654158 121.128585 
L 137.726802 122.308683 
L 137.799447 121.128585 
L 137.944736 122.308683 
L 138.090024 121.128585 
L 138.67118 121.128585 
L 138.816469 119.948488 
L 138.889113 121.128585 
L 138.961758 119.948488 
L 139.034402 121.128585 
L 139.179691 119.948488 
L 140.342002 119.948488 
L 140.414646 117.588293 
L 140.559935 119.948488 
L 140.777868 117.588293 
L 140.850513 119.948488 
L 140.923157 117.588293 
L 140.995801 118.76839 
L 141.068446 118.76839 
L 141.213735 116.408195 
L 141.359024 117.588293 
L 141.431668 117.588293 
L 141.504312 116.408195 
L 141.576957 117.588293 
L 141.649601 116.408195 
L 141.722246 117.588293 
L 141.79489 116.408195 
L 141.940179 117.588293 
L 142.085468 117.588293 
L 142.158112 115.228098 
L 142.230757 116.408195 
L 142.303401 117.588293 
L 142.376046 115.228098 
L 142.44869 116.408195 
L 142.521334 115.228098 
L 142.666623 116.408195 
L 142.739268 115.228098 
L 142.884557 116.408195 
L 143.029845 115.228098 
L 143.320423 115.228098 
L 143.465712 116.408195 
L 143.683645 114.048 
L 143.75629 114.048 
L 143.901579 115.228098 
L 144.046867 114.048 
L 144.119512 114.048 
L 144.192156 115.228098 
L 144.337445 114.048 
L 144.41009 115.228098 
L 144.628023 112.867902 
L 144.773312 114.048 
L 144.9186 114.048 
L 145.063889 112.867902 
L 145.136534 112.867902 
L 145.209178 114.048 
L 145.354467 112.867902 
L 145.427111 112.867902 
L 145.499756 114.048 
L 145.645045 112.867902 
L 145.717689 112.867902 
L 145.790334 111.687805 
L 145.862978 112.867902 
L 145.935622 111.687805 
L 146.080911 112.867902 
L 146.153556 111.687805 
L 146.2262 112.867902 
L 146.371489 111.687805 
L 146.807356 111.687805 
L 146.88 110.507707 
L 146.952644 111.687805 
L 147.025289 110.507707 
L 147.170578 111.687805 
L 147.243222 110.507707 
L 147.388511 111.687805 
L 147.461155 110.507707 
L 147.606444 111.687805 
L 147.679089 111.687805 
L 147.824378 110.507707 
L 147.897022 110.507707 
L 147.969666 109.32761 
L 148.114955 110.507707 
L 148.260244 109.32761 
L 148.332889 109.32761 
L 148.405533 110.507707 
L 148.550822 109.32761 
L 148.914044 109.32761 
L 148.986688 108.147512 
L 149.059333 110.507707 
L 149.131977 109.32761 
L 149.277266 109.32761 
L 149.34991 108.147512 
L 149.422555 109.32761 
L 149.567844 108.147512 
L 149.640488 109.32761 
L 149.713133 108.147512 
L 149.785777 109.32761 
L 149.931066 108.147512 
L 150.148999 108.147512 
L 150.221644 109.32761 
L 150.366932 108.147512 
L 150.584866 108.147512 
L 150.65751 106.967415 
L 150.802799 108.147512 
L 150.875443 106.967415 
L 150.948088 108.147512 
L 151.093377 105.787317 
L 151.31131 108.147512 
L 151.456599 105.787317 
L 151.529243 106.967415 
L 151.601888 105.787317 
L 151.747177 106.967415 
L 151.892465 106.967415 
L 152.037754 105.787317 
L 152.255688 105.787317 
L 152.328332 106.967415 
L 152.473621 105.787317 
L 152.546265 105.787317 
L 152.61891 104.60722 
L 152.764199 105.787317 
L 152.909487 105.787317 
L 152.982132 104.60722 
L 153.127421 105.787317 
L 153.200065 104.60722 
L 153.345354 105.787317 
L 153.490643 105.787317 
L 153.563287 104.60722 
L 153.635932 105.787317 
L 153.781221 104.60722 
L 154.507665 104.60722 
L 154.580309 103.427122 
L 154.725598 104.60722 
L 154.870887 104.60722 
L 155.016176 103.427122 
L 155.161465 104.60722 
L 155.306753 103.427122 
L 155.960553 103.427122 
L 156.105842 102.247024 
L 156.178487 103.427122 
L 156.39642 101.066927 
L 156.541709 101.066927 
L 156.759642 103.427122 
L 156.904931 102.247024 
L 157.05022 102.247024 
L 157.122864 101.066927 
L 157.195509 102.247024 
L 157.340797 101.066927 
L 157.486086 101.066927 
L 157.558731 102.247024 
L 157.70402 99.886829 
L 157.776664 101.066927 
L 157.921953 99.886829 
L 158.067242 101.066927 
L 158.430464 101.066927 
L 158.575753 99.886829 
L 158.648397 99.886829 
L 158.793686 101.066927 
L 158.86633 99.886829 
L 158.938975 101.066927 
L 159.084264 99.886829 
L 159.156908 99.886829 
L 159.229552 98.706732 
L 159.302197 99.886829 
L 159.447486 98.706732 
L 159.52013 98.706732 
L 159.665419 99.886829 
L 159.738063 99.886829 
L 159.883352 98.706732 
L 160.537152 98.706732 
L 160.609797 97.526634 
L 160.755085 98.706732 
L 160.900374 98.706732 
L 161.045663 97.526634 
L 161.118308 97.526634 
L 161.190952 98.706732 
L 161.336241 97.526634 
L 161.48153 98.706732 
L 161.699463 96.346537 
L 161.844752 97.526634 
L 161.917396 96.346537 
L 162.062685 97.526634 
L 162.13533 96.346537 
L 162.207974 97.526634 
L 162.280618 96.346537 
L 162.353263 97.526634 
L 162.498552 96.346537 
L 162.643841 96.346537 
L 162.789129 97.526634 
L 162.934418 96.346537 
L 163.224996 96.346537 
L 163.29764 97.526634 
L 163.442929 95.166439 
L 163.588218 96.346537 
L 163.660862 95.166439 
L 163.806151 96.346537 
L 163.95144 95.166439 
L 164.024085 95.166439 
L 164.096729 96.346537 
L 164.169373 95.166439 
L 164.314662 96.346537 
L 164.459951 95.166439 
L 164.532596 95.166439 
L 164.60524 96.346537 
L 164.750529 93.986341 
L 164.895818 95.166439 
L 165.186395 95.166439 
L 165.331684 93.986341 
L 165.549618 93.986341 
L 165.622262 95.166439 
L 165.767551 93.986341 
L 165.840195 95.166439 
L 165.91284 93.986341 
L 165.985484 95.166439 
L 166.203417 92.806244 
L 166.348706 93.986341 
L 166.421351 92.806244 
L 166.56664 93.986341 
L 166.711928 93.986341 
L 166.857217 92.806244 
L 166.929862 93.986341 
L 167.075151 92.806244 
L 167.583662 92.806244 
L 167.656306 91.626146 
L 167.801595 92.806244 
L 168.092172 92.806244 
L 168.164817 91.626146 
L 168.237461 93.986341 
L 168.310106 92.806244 
L 168.455395 91.626146 
L 168.600683 92.806244 
L 168.673328 92.806244 
L 168.818617 90.446049 
L 168.891261 92.806244 
L 168.963906 91.626146 
L 169.835639 91.626146 
L 169.908283 90.446049 
L 169.980928 91.626146 
L 170.126216 90.446049 
L 170.198861 91.626146 
L 170.34415 90.446049 
L 170.416794 91.626146 
L 170.562083 90.446049 
L 171.143238 90.446049 
L 171.215883 89.265951 
L 171.288527 90.446049 
L 171.361172 89.265951 
L 171.506461 90.446049 
L 171.579105 89.265951 
L 171.724394 90.446049 
L 171.797038 89.265951 
L 171.869683 90.446049 
L 171.942327 89.265951 
L 172.087616 90.446049 
L 172.16026 89.265951 
L 172.305549 90.446049 
L 172.378194 89.265951 
L 172.450838 90.446049 
L 172.596127 89.265951 
L 172.668771 90.446049 
L 172.81406 88.085854 
L 172.959349 89.265951 
L 173.031993 88.085854 
L 173.104638 89.265951 
L 173.177282 88.085854 
L 173.249927 89.265951 
L 173.322571 88.085854 
L 173.395216 89.265951 
L 173.540504 88.085854 
L 173.613149 88.085854 
L 173.685793 89.265951 
L 173.903727 86.905756 
L 173.976371 89.265951 
L 174.049015 86.905756 
L 174.12166 88.085854 
L 174.194304 88.085854 
L 174.266949 89.265951 
L 174.484882 86.905756 
L 174.630171 88.085854 
L 174.702815 85.725659 
L 174.77546 88.085854 
L 174.848104 86.905756 
L 174.993393 88.085854 
L 175.138682 86.905756 
L 175.211326 88.085854 
L 175.356615 86.905756 
L 175.574548 86.905756 
L 175.647193 85.725659 
L 175.792482 86.905756 
L 175.865126 85.725659 
L 176.010415 86.905756 
L 176.373637 86.905756 
L 176.446282 85.725659 
L 176.518926 86.905756 
L 176.59157 85.725659 
L 176.664215 86.905756 
L 176.809504 85.725659 
L 176.954793 85.725659 
L 177.027437 86.905756 
L 177.100081 85.725659 
L 177.172726 86.905756 
L 177.318015 85.725659 
L 177.390659 86.905756 
L 177.463303 84.545561 
L 177.535948 85.725659 
L 177.608592 86.905756 
L 177.826526 84.545561 
L 177.971814 85.725659 
L 178.044459 85.725659 
L 178.117103 84.545561 
L 178.189748 85.725659 
L 178.262392 84.545561 
L 178.407681 85.725659 
L 178.480325 84.545561 
L 178.55297 85.725659 
L 178.698259 84.545561 
L 178.843548 85.725659 
L 178.988836 84.545561 
L 179.061481 85.725659 
L 179.20677 84.545561 
L 179.569992 84.545561 
L 179.715281 83.365463 
L 179.86057 84.545561 
L 179.933214 84.545561 
L 180.005858 83.365463 
L 180.078503 84.545561 
L 180.223792 83.365463 
L 180.296436 83.365463 
L 180.369081 84.545561 
L 180.514369 83.365463 
L 181.168169 83.365463 
L 181.240814 84.545561 
L 181.386103 82.185366 
L 181.531391 83.365463 
L 181.821969 83.365463 
L 181.894614 81.005268 
L 181.967258 83.365463 
L 182.112547 81.005268 
L 182.185191 81.005268 
L 182.33048 83.365463 
L 182.403124 83.365463 
L 182.548413 81.005268 
L 182.621058 81.005268 
L 182.766347 83.365463 
L 182.911635 81.005268 
L 185.236257 81.005268 
L 185.308902 79.825171 
L 185.45419 81.005268 
L 185.744768 81.005268 
L 185.890057 79.825171 
L 186.035346 81.005268 
L 186.180635 81.005268 
L 186.253279 79.825171 
L 186.398568 81.005268 
L 186.543857 79.825171 
L 186.616501 81.005268 
L 186.689146 79.825171 
L 186.834434 81.005268 
L 186.907079 79.825171 
L 186.979723 81.005268 
L 187.052368 79.825171 
L 187.125012 81.005268 
L 187.270301 78.645073 
L 187.41559 79.825171 
L 187.924101 79.825171 
L 187.996745 78.645073 
L 188.06939 79.825171 
L 188.142034 78.645073 
L 188.287323 79.825171 
L 188.359967 78.645073 
L 188.505256 79.825171 
L 188.72319 79.825171 
L 188.868478 78.645073 
L 188.941123 79.825171 
L 189.086412 78.645073 
L 189.522278 78.645073 
L 189.594923 79.825171 
L 189.740212 78.645073 
L 189.812856 79.825171 
L 189.958145 78.645073 
L 190.394011 78.645073 
L 190.466656 77.464976 
L 190.611945 78.645073 
L 190.684589 76.284878 
L 190.757234 77.464976 
L 190.829878 77.464976 
L 190.902522 78.645073 
L 190.975167 77.464976 
L 191.047811 78.645073 
L 191.120456 77.464976 
L 191.265745 78.645073 
L 191.338389 78.645073 
L 191.411033 77.464976 
L 191.483678 78.645073 
L 191.628967 77.464976 
L 191.701611 77.464976 
L 191.774255 78.645073 
L 191.919544 77.464976 
L 192.355411 77.464976 
L 192.428055 76.284878 
L 192.573344 77.464976 
L 192.718633 77.464976 
L 192.791277 76.284878 
L 192.863922 77.464976 
L 193.009211 76.284878 
L 193.1545 77.464976 
L 193.372433 77.464976 
L 193.517722 75.10478 
L 193.663011 77.464976 
L 193.808299 76.284878 
L 193.953588 76.284878 
L 194.026233 77.464976 
L 194.098877 76.284878 
L 194.171522 77.464976 
L 194.31681 76.284878 
L 194.462099 76.284878 
L 194.607388 75.10478 
L 194.752677 75.10478 
L 194.897966 77.464976 
L 194.97061 75.10478 
L 195.043255 76.284878 
L 195.188544 75.10478 
L 195.333832 76.284878 
L 195.406477 75.10478 
L 195.551766 76.284878 
L 195.697055 75.10478 
L 195.769699 75.10478 
L 195.842343 76.284878 
L 195.914988 75.10478 
L 195.987632 76.284878 
L 196.132921 75.10478 
L 196.568788 75.10478 
L 196.714076 73.924683 
L 196.786721 73.924683 
L 196.93201 75.10478 
L 197.367876 75.10478 
L 197.440521 76.284878 
L 197.658454 73.924683 
L 197.803743 73.924683 
L 197.949032 75.10478 
L 198.021676 75.10478 
L 198.094321 73.924683 
L 198.166965 75.10478 
L 198.239609 73.924683 
L 198.312254 75.10478 
L 198.384898 73.924683 
L 198.530187 75.10478 
L 198.675476 75.10478 
L 198.820765 73.924683 
L 198.893409 75.10478 
L 199.038698 73.924683 
L 199.329276 73.924683 
L 199.40192 72.744585 
L 199.547209 73.924683 
L 199.619854 72.744585 
L 199.765142 73.924683 
L 200.418942 73.924683 
L 200.564231 72.744585 
L 201.072742 72.744585 
L 201.145386 73.924683 
L 201.290675 72.744585 
L 201.36332 73.924683 
L 201.508609 72.744585 
L 202.307697 72.744585 
L 202.452986 71.564488 
L 202.525631 71.564488 
L 202.670919 72.744585 
L 202.743564 71.564488 
L 202.816208 72.744585 
L 202.961497 71.564488 
L 203.106786 72.744585 
L 203.17943 72.744585 
L 203.252075 71.564488 
L 203.324719 72.744585 
L 203.470008 71.564488 
L 204.051164 71.564488 
L 204.123808 72.744585 
L 204.269097 71.564488 
L 204.632319 71.564488 
L 204.704963 72.744585 
L 204.777608 70.38439 
L 204.850252 71.564488 
L 205.068186 71.564488 
L 205.213474 70.38439 
L 205.286119 71.564488 
L 205.431408 70.38439 
L 205.576697 71.564488 
L 205.721985 70.38439 
L 206.157852 70.38439 
L 206.230496 71.564488 
L 206.375785 70.38439 
L 206.811652 70.38439 
L 206.884296 69.204293 
L 207.029585 70.38439 
L 207.247518 70.38439 
L 207.320163 69.204293 
L 207.465452 70.38439 
L 207.683385 70.38439 
L 207.756029 69.204293 
L 207.901318 70.38439 
L 208.046607 70.38439 
L 208.119251 69.204293 
L 208.26454 70.38439 
L 208.409829 69.204293 
L 208.555118 70.38439 
L 208.627762 70.38439 
L 208.773051 69.204293 
L 208.91834 70.38439 
L 209.063629 69.204293 
L 209.136273 69.204293 
L 209.208918 70.38439 
L 209.354207 69.204293 
L 209.426851 69.204293 
L 209.499496 70.38439 
L 209.644784 69.204293 
L 210.008007 69.204293 
L 210.080651 68.024195 
L 210.153295 69.204293 
L 210.22594 68.024195 
L 210.371229 69.204293 
L 210.807095 69.204293 
L 210.87974 68.024195 
L 211.025028 69.204293 
L 211.170317 69.204293 
L 211.315606 66.844098 
L 211.388251 69.204293 
L 211.460895 68.024195 
L 211.678828 68.024195 
L 211.751473 69.204293 
L 211.896762 66.844098 
L 211.969406 69.204293 
L 212.04205 68.024195 
L 212.114695 69.204293 
L 212.259984 68.024195 
L 212.841139 68.024195 
L 212.986428 66.844098 
L 213.131717 68.024195 
L 213.204361 66.844098 
L 213.34965 68.024195 
L 213.422295 68.024195 
L 213.567583 66.844098 
L 213.712872 68.024195 
L 214.00345 68.024195 
L 214.148739 66.844098 
L 214.294028 68.024195 
L 214.366672 68.024195 
L 214.511961 66.844098 
L 214.65725 68.024195 
L 214.802539 68.024195 
L 214.947828 66.844098 
L 215.093116 66.844098 
L 215.165761 68.024195 
L 215.31105 66.844098 
L 215.528983 66.844098 
L 215.601627 65.664 
L 215.674272 68.024195 
L 215.746916 66.844098 
L 215.892205 68.024195 
L 215.964849 66.844098 
L 216.255427 70.38439 
L 216.400716 69.204293 
L 216.47336 69.204293 
L 216.618649 71.564488 
L 216.691294 70.38439 
L 216.909227 72.744585 
L 216.981871 71.564488 
L 217.12716 72.744585 
L 217.199805 71.564488 
L 217.345094 73.924683 
L 217.417738 73.924683 
L 217.490382 72.744585 
L 217.635671 73.924683 
L 217.708316 73.924683 
L 217.926249 76.284878 
L 218.071538 75.10478 
L 218.216827 77.464976 
L 218.362116 76.284878 
L 218.43476 76.284878 
L 218.652693 78.645073 
L 218.725338 78.645073 
L 218.797982 77.464976 
L 219.015915 79.825171 
L 219.08856 79.825171 
L 219.233849 78.645073 
L 219.451782 81.005268 
L 219.524426 79.825171 
L 219.669715 81.005268 
L 220.105582 81.005268 
L 220.250871 83.365463 
L 220.541448 83.365463 
L 220.686737 84.545561 
L 220.759382 84.545561 
L 220.832026 83.365463 
L 221.049959 85.725659 
L 221.122604 84.545561 
L 221.267893 85.725659 
L 221.340537 85.725659 
L 221.485826 86.905756 
L 221.55847 86.905756 
L 221.631115 85.725659 
L 221.703759 88.085854 
L 221.776404 86.905756 
L 221.849048 86.905756 
L 222.066981 89.265951 
L 222.357559 89.265951 
L 222.502848 90.446049 
L 222.86607 90.446049 
L 222.938714 91.626146 
L 223.011359 90.446049 
L 223.156648 91.626146 
L 223.229292 91.626146 
L 223.301937 92.806244 
L 223.374581 91.626146 
L 223.51987 93.986341 
L 223.592514 93.986341 
L 223.737803 92.806244 
L 223.955736 95.166439 
L 224.028381 93.986341 
L 224.101025 95.166439 
L 224.17367 93.986341 
L 224.391603 96.346537 
L 224.609536 96.346537 
L 224.682181 98.706732 
L 224.754825 97.526634 
L 224.900114 97.526634 
L 225.045403 98.706732 
L 225.118047 98.706732 
L 225.190692 97.526634 
L 225.263336 99.886829 
L 225.33598 98.706732 
L 225.481269 98.706732 
L 225.553914 99.886829 
L 225.626558 98.706732 
L 225.771847 99.886829 
L 225.98978 99.886829 
L 226.135069 101.066927 
L 226.353002 101.066927 
L 226.498291 102.247024 
L 226.788869 102.247024 
L 226.934158 104.60722 
L 227.079447 103.427122 
L 227.224736 103.427122 
L 227.442669 105.787317 
L 227.515313 104.60722 
L 227.587958 105.787317 
L 227.660602 104.60722 
L 227.878535 106.967415 
L 228.023824 105.787317 
L 228.241758 108.147512 
L 228.387046 108.147512 
L 228.532335 106.967415 
L 228.677624 108.147512 
L 228.750269 108.147512 
L 228.895557 109.32761 
L 229.113491 109.32761 
L 229.258779 110.507707 
L 229.331424 109.32761 
L 229.476713 110.507707 
L 229.549357 110.507707 
L 229.622002 111.687805 
L 229.694646 110.507707 
L 229.839935 111.687805 
L 230.057868 111.687805 
L 230.130513 112.867902 
L 230.203157 111.687805 
L 230.42109 114.048 
L 230.493735 114.048 
L 230.566379 112.867902 
L 230.711668 115.228098 
L 230.784312 114.048 
L 230.856957 116.408195 
L 230.929601 114.048 
L 231.002246 115.228098 
L 231.147535 115.228098 
L 231.220179 114.048 
L 231.365468 116.408195 
L 231.438112 116.408195 
L 231.510757 114.048 
L 231.656046 117.588293 
L 231.72869 116.408195 
L 231.873979 117.588293 
L 231.946623 117.588293 
L 232.091912 118.76839 
L 232.164557 117.588293 
L 232.309845 118.76839 
L 232.38249 118.76839 
L 232.455134 119.948488 
L 232.527779 118.76839 
L 232.673068 119.948488 
L 232.745712 118.76839 
L 232.963645 121.128585 
L 233.108934 119.948488 
L 233.254223 121.128585 
L 233.472156 121.128585 
L 233.617445 122.308683 
L 233.835378 122.308683 
L 233.980667 123.48878 
L 234.053312 122.308683 
L 234.1986 123.48878 
L 234.416534 123.48878 
L 234.489178 124.668878 
L 234.561823 123.48878 
L 234.707111 124.668878 
L 234.779756 124.668878 
L 234.925045 125.848976 
L 234.997689 124.668878 
L 235.142978 125.848976 
L 235.360911 125.848976 
L 235.433556 127.029073 
L 235.578845 125.848976 
L 235.796778 128.209171 
L 236.232644 128.209171 
L 236.377933 129.389268 
L 236.523222 129.389268 
L 236.595867 130.569366 
L 236.668511 128.209171 
L 236.741155 129.389268 
L 236.8138 129.389268 
L 236.959089 131.749463 
L 237.104378 129.389268 
L 237.249666 131.749463 
L 237.322311 130.569366 
L 237.4676 131.749463 
L 237.540244 131.749463 
L 237.685533 132.929561 
L 238.048755 132.929561 
L 238.194044 134.109659 
L 238.266688 134.109659 
L 238.411977 135.289756 
L 238.484622 135.289756 
L 238.557266 134.109659 
L 238.702555 135.289756 
L 238.847844 135.289756 
L 238.993133 136.469854 
L 239.211066 136.469854 
L 239.356355 137.649951 
L 239.574288 137.649951 
L 239.646932 136.469854 
L 239.792221 138.830049 
L 240.228088 138.830049 
L 240.300732 140.010146 
L 240.446021 138.830049 
L 240.59131 140.010146 
L 240.881888 140.010146 
L 241.027177 141.190244 
L 241.099821 141.190244 
L 241.172465 142.370341 
L 241.24511 141.190244 
L 241.390399 142.370341 
L 241.608332 142.370341 
L 241.680976 143.550439 
L 241.753621 142.370341 
L 241.826265 143.550439 
L 241.89891 142.370341 
L 242.044199 143.550439 
L 242.116843 142.370341 
L 242.334776 144.730537 
L 242.407421 144.730537 
L 242.55271 143.550439 
L 242.697998 144.730537 
L 242.843287 144.730537 
L 242.915932 145.910634 
L 242.988576 144.730537 
L 243.061221 145.910634 
L 243.206509 144.730537 
L 243.424443 147.090732 
L 243.569731 145.910634 
L 243.71502 147.090732 
L 243.860309 147.090732 
L 244.005598 148.270829 
L 244.078242 148.270829 
L 244.150887 147.090732 
L 244.296176 148.270829 
L 244.36882 148.270829 
L 244.441465 149.450927 
L 244.514109 148.270829 
L 244.659398 149.450927 
L 244.877331 149.450927 
L 244.949976 150.631024 
L 245.02262 149.450927 
L 245.167909 150.631024 
L 245.603775 150.631024 
L 245.67642 151.811122 
L 245.749064 150.631024 
L 245.894353 152.99122 
L 246.039642 151.811122 
L 246.112286 151.811122 
L 246.257575 152.99122 
L 246.402864 151.811122 
L 246.475509 154.171317 
L 246.548153 152.99122 
L 246.620797 152.99122 
L 246.766086 154.171317 
L 247.056664 154.171317 
L 247.201953 155.351415 
L 247.274597 154.171317 
L 247.419886 155.351415 
L 247.928397 155.351415 
L 248.073686 156.531512 
L 248.14633 156.531512 
L 248.218975 157.71161 
L 248.291619 156.531512 
L 248.436908 157.71161 
L 248.509552 156.531512 
L 248.654841 157.71161 
L 248.872775 157.71161 
L 249.018063 158.891707 
L 249.163352 157.71161 
L 249.381286 160.071805 
L 249.671863 160.071805 
L 249.744508 158.891707 
L 249.889797 160.071805 
L 249.962441 160.071805 
L 250.035085 161.251902 
L 250.180374 158.891707 
L 250.325663 161.251902 
L 250.398308 160.071805 
L 250.470952 161.251902 
L 250.543596 160.071805 
L 250.688885 161.251902 
L 250.834174 161.251902 
L 250.979463 162.432 
L 251.270041 162.432 
L 251.41533 163.612098 
L 251.560618 163.612098 
L 251.705907 162.432 
L 251.923841 164.792195 
L 252.287063 164.792195 
L 252.359707 165.972293 
L 252.432352 164.792195 
L 252.57764 165.972293 
L 252.940862 165.972293 
L 253.086151 167.15239 
L 253.376729 167.15239 
L 253.449373 168.332488 
L 253.522018 167.15239 
L 253.667307 169.512585 
L 253.812596 168.332488 
L 254.175818 168.332488 
L 254.321107 169.512585 
L 254.756973 169.512585 
L 254.902262 170.692683 
L 254.974906 169.512585 
L 255.047551 170.692683 
L 255.120195 169.512585 
L 255.265484 171.87278 
L 255.338129 170.692683 
L 255.483417 171.87278 
L 255.991928 171.87278 
L 256.137217 173.052878 
L 256.282506 173.052878 
L 256.355151 171.87278 
L 256.573084 174.232976 
L 256.645728 173.052878 
L 256.791017 174.232976 
L 257.00895 174.232976 
L 257.154239 175.413073 
L 257.226884 174.232976 
L 257.372172 175.413073 
L 257.444817 175.413073 
L 257.590106 174.232976 
L 257.735395 175.413073 
L 258.098617 175.413073 
L 258.243906 176.593171 
L 258.31655 176.593171 
L 258.389194 177.773268 
L 258.534483 176.593171 
L 258.679772 176.593171 
L 258.825061 177.773268 
L 258.897705 176.593171 
L 259.042994 177.773268 
L 259.115639 176.593171 
L 259.406216 180.133463 
L 259.551505 178.953366 
L 259.62415 180.133463 
L 259.696794 177.773268 
L 259.769439 178.953366 
L 259.914727 178.953366 
L 259.987372 180.133463 
L 260.060016 178.953366 
L 260.205305 180.133463 
L 260.350594 180.133463 
L 260.495883 181.313561 
L 260.713816 181.313561 
L 260.786461 180.133463 
L 260.931749 181.313561 
L 261.149683 181.313561 
L 261.222327 182.493659 
L 261.367616 181.313561 
L 261.44026 182.493659 
L 261.512905 181.313561 
L 261.658194 182.493659 
L 261.876127 182.493659 
L 261.948771 183.673756 
L 262.09406 182.493659 
L 262.166705 182.493659 
L 262.239349 183.673756 
L 262.311993 182.493659 
L 262.457282 183.673756 
L 262.675216 183.673756 
L 262.74786 184.853854 
L 262.820504 183.673756 
L 262.965793 184.853854 
L 263.329015 184.853854 
L 263.474304 186.033951 
L 264.200749 186.033951 
L 264.346037 187.214049 
L 264.491326 187.214049 
L 264.636615 188.394146 
L 264.927193 188.394146 
L 265.072482 187.214049 
L 265.217771 188.394146 
L 265.290415 188.394146 
L 265.435704 189.574244 
L 265.580993 188.394146 
L 265.726282 189.574244 
L 265.798926 189.574244 
L 265.944215 190.754341 
L 266.016859 189.574244 
L 266.162148 190.754341 
L 266.307437 189.574244 
L 266.52537 191.934439 
L 266.670659 190.754341 
L 266.888592 190.754341 
L 267.033881 191.934439 
L 267.251814 191.934439 
L 267.324459 190.754341 
L 267.469748 193.114537 
L 267.615037 191.934439 
L 267.687681 191.934439 
L 267.83297 193.114537 
L 268.123548 193.114537 
L 268.196192 194.294634 
L 268.268836 193.114537 
L 268.414125 194.294634 
L 268.48677 193.114537 
L 268.632059 194.294634 
L 268.777347 194.294634 
L 268.849992 193.114537 
L 268.995281 194.294634 
L 269.067925 194.294634 
L 269.14057 195.474732 
L 269.285858 194.294634 
L 269.649081 194.294634 
L 269.794369 196.654829 
L 269.939658 195.474732 
L 270.012303 195.474732 
L 270.157592 196.654829 
L 270.230236 195.474732 
L 270.375525 197.834927 
L 270.448169 195.474732 
L 270.520814 196.654829 
L 270.666103 197.834927 
L 270.738747 196.654829 
L 270.884036 197.834927 
L 270.95668 196.654829 
L 271.101969 197.834927 
L 271.174614 197.834927 
L 271.319902 199.015024 
L 271.392547 197.834927 
L 271.465191 199.015024 
L 271.537836 197.834927 
L 271.683124 199.015024 
L 271.828413 197.834927 
L 271.973702 199.015024 
L 272.046347 199.015024 
L 272.191635 200.195122 
L 272.336924 199.015024 
L 272.409569 199.015024 
L 272.482213 200.195122 
L 272.554858 199.015024 
L 272.627502 200.195122 
L 272.700146 199.015024 
L 272.845435 201.37522 
L 272.91808 200.195122 
L 272.990724 201.37522 
L 273.136013 200.195122 
L 273.281302 201.37522 
L 273.426591 201.37522 
L 273.499235 200.195122 
L 273.644524 202.555317 
L 273.717168 201.37522 
L 273.789813 202.555317 
L 273.862457 201.37522 
L 274.007746 202.555317 
L 274.588902 202.555317 
L 274.73419 203.735415 
L 274.806835 202.555317 
L 274.952124 203.735415 
L 275.097413 203.735415 
L 275.170057 202.555317 
L 275.315346 203.735415 
L 275.460635 203.735415 
L 275.605924 204.915512 
L 275.678568 204.915512 
L 275.823857 203.735415 
L 275.896501 203.735415 
L 276.04179 206.09561 
L 276.114434 204.915512 
L 276.259723 206.09561 
L 276.332368 204.915512 
L 276.405012 206.09561 
L 276.477657 204.915512 
L 276.622945 206.09561 
L 276.69559 204.915512 
L 276.913523 207.275707 
L 277.058812 206.09561 
L 277.204101 207.275707 
L 277.276745 206.09561 
L 277.422034 207.275707 
L 277.494679 206.09561 
L 277.712612 208.455805 
L 277.857901 206.09561 
L 278.00319 208.455805 
L 278.148478 208.455805 
L 278.221123 207.275707 
L 278.366412 208.455805 
L 278.439056 207.275707 
L 278.584345 208.455805 
L 278.656989 208.455805 
L 278.802278 209.635902 
L 278.874923 209.635902 
L 279.020212 208.455805 
L 279.1655 209.635902 
L 279.456078 209.635902 
L 279.528723 210.816 
L 279.601367 209.635902 
L 279.674011 210.816 
L 279.8193 209.635902 
L 279.891945 210.816 
L 279.964589 209.635902 
L 280.037234 211.996098 
L 280.182522 209.635902 
L 280.327811 210.816 
L 280.691033 210.816 
L 280.836322 211.996098 
L 280.981611 210.816 
L 281.1269 213.176195 
L 281.272189 211.996098 
L 281.344833 213.176195 
L 281.490122 210.816 
L 281.635411 213.176195 
L 281.708055 211.996098 
L 281.7807 213.176195 
L 281.853344 211.996098 
L 281.998633 214.356293 
L 282.143922 213.176195 
L 282.216566 214.356293 
L 282.289211 213.176195 
L 282.4345 214.356293 
L 282.725077 214.356293 
L 282.870366 215.53639 
L 283.015655 214.356293 
L 283.160944 215.53639 
L 283.233588 215.53639 
L 283.306233 214.356293 
L 283.451522 215.53639 
L 283.59681 215.53639 
L 283.669455 214.356293 
L 283.814744 215.53639 
L 284.105321 215.53639 
L 284.177966 216.716488 
L 284.25061 215.53639 
L 284.395899 216.716488 
L 284.541188 215.53639 
L 284.759121 217.896585 
L 284.90441 216.716488 
L 284.977055 216.716488 
L 285.049699 217.896585 
L 285.122343 216.716488 
L 285.194988 217.896585 
L 285.267632 216.716488 
L 285.412921 217.896585 
L 285.485566 217.896585 
L 285.55821 216.716488 
L 285.703499 217.896585 
L 285.921432 217.896585 
L 285.994076 216.716488 
L 286.066721 219.076683 
L 286.139365 217.896585 
L 286.21201 217.896585 
L 286.284654 219.076683 
L 286.357299 217.896585 
L 286.502587 219.076683 
L 286.647876 219.076683 
L 286.720521 217.896585 
L 286.86581 219.076683 
L 286.938454 219.076683 
L 287.011098 220.25678 
L 287.156387 219.076683 
L 287.301676 219.076683 
L 287.374321 220.25678 
L 287.446965 219.076683 
L 287.592254 221.436878 
L 287.664898 220.25678 
L 287.737543 221.436878 
L 287.810187 220.25678 
L 287.955476 221.436878 
L 288.02812 220.25678 
L 288.100765 221.436878 
L 288.173409 220.25678 
L 288.318698 221.436878 
L 288.463987 221.436878 
L 288.536631 220.25678 
L 288.754565 222.616976 
L 288.899854 221.436878 
L 289.045142 221.436878 
L 289.117787 222.616976 
L 289.190431 221.436878 
L 289.33572 222.616976 
L 289.771587 222.616976 
L 289.844231 223.797073 
L 289.916876 222.616976 
L 290.062164 223.797073 
L 290.352742 223.797073 
L 290.425386 224.977171 
L 290.498031 223.797073 
L 290.64332 224.977171 
L 290.788609 223.797073 
L 290.861253 224.977171 
L 290.933897 223.797073 
L 291.006542 224.977171 
L 291.079186 223.797073 
L 291.224475 226.157268 
L 291.369764 224.977171 
L 291.950919 224.977171 
L 292.096208 226.157268 
L 292.168853 226.157268 
L 292.241497 224.977171 
L 292.45943 227.337366 
L 292.532075 227.337366 
L 292.677364 226.157268 
L 292.822653 227.337366 
L 293.331164 227.337366 
L 293.403808 228.517463 
L 293.476452 227.337366 
L 293.549097 228.517463 
L 293.621741 227.337366 
L 293.694386 228.517463 
L 293.839675 227.337366 
L 293.912319 228.517463 
L 293.984963 227.337366 
L 294.130252 228.517463 
L 294.348186 228.517463 
L 294.42083 227.337366 
L 294.566119 228.517463 
L 294.856697 228.517463 
L 294.929341 229.697561 
L 295.07463 228.517463 
L 295.365207 228.517463 
L 295.437852 229.697561 
L 295.510496 228.517463 
L 295.655785 229.697561 
L 295.72843 229.697561 
L 295.801074 228.517463 
L 295.873718 230.877659 
L 295.946363 229.697561 
L 296.019007 230.877659 
L 296.164296 229.697561 
L 296.309585 230.877659 
L 296.382229 230.877659 
L 296.454874 229.697561 
L 296.600163 232.057756 
L 296.745452 230.877659 
L 296.89074 230.877659 
L 297.036029 233.237854 
L 297.108674 230.877659 
L 297.253963 233.237854 
L 297.399251 233.237854 
L 297.471896 230.877659 
L 297.617185 233.237854 
L 297.762474 233.237854 
L 297.907762 232.057756 
L 298.053051 233.237854 
L 299.50594 233.237854 
L 299.578584 234.417951 
L 299.651229 233.237854 
L 299.796517 234.417951 
L 299.869162 234.417951 
L 300.014451 233.237854 
L 300.087095 233.237854 
L 300.232384 234.417951 
L 300.668251 234.417951 
L 300.740895 235.598049 
L 300.813539 234.417951 
L 300.958828 235.598049 
L 301.104117 235.598049 
L 301.176762 234.417951 
L 301.32205 235.598049 
L 301.394695 234.417951 
L 301.467339 236.778146 
L 301.539984 235.598049 
L 301.612628 234.417951 
L 301.757917 235.598049 
L 301.903206 235.598049 
L 301.97585 234.417951 
L 302.193784 236.778146 
L 302.266428 235.598049 
L 302.411717 236.778146 
L 302.484361 235.598049 
L 302.62965 237.958244 
L 302.774939 236.778146 
L 302.992872 236.778146 
L 303.065517 237.958244 
L 303.138161 236.778146 
L 303.210806 237.958244 
L 303.28345 236.778146 
L 303.428739 237.958244 
L 303.501383 236.778146 
L 303.646672 237.958244 
L 304.227828 237.958244 
L 304.373116 239.138341 
L 304.518405 237.958244 
L 304.663694 239.138341 
L 304.736338 237.958244 
L 304.881627 239.138341 
L 304.954272 239.138341 
L 305.099561 237.958244 
L 305.244849 239.138341 
L 305.317494 239.138341 
L 305.462783 237.958244 
L 305.680716 240.318439 
L 305.75336 239.138341 
L 305.826005 240.318439 
L 305.971294 239.138341 
L 306.189227 241.498537 
L 306.334516 239.138341 
L 306.479805 240.318439 
L 306.697738 240.318439 
L 306.770382 241.498537 
L 306.843027 240.318439 
L 306.915671 241.498537 
L 306.988316 240.318439 
L 307.06096 241.498537 
L 307.133605 240.318439 
L 307.278893 241.498537 
L 307.351538 241.498537 
L 307.496827 240.318439 
L 307.569471 240.318439 
L 307.71476 241.498537 
L 308.295915 241.498537 
L 308.36856 242.678634 
L 308.513849 241.498537 
L 308.731782 241.498537 
L 308.877071 242.678634 
L 308.949715 241.498537 
L 309.095004 242.678634 
L 309.167648 242.678634 
L 309.312937 243.858732 
L 309.748804 243.858732 
L 309.821448 242.678634 
L 309.966737 243.858732 
L 310.039382 243.858732 
L 310.18467 242.678634 
L 310.329959 243.858732 
L 310.402604 242.678634 
L 310.547893 245.038829 
L 310.693181 243.858732 
L 310.765826 243.858732 
L 310.911115 245.038829 
L 311.056404 243.858732 
L 311.129048 243.858732 
L 311.274337 245.038829 
L 311.419626 245.038829 
L 311.49227 246.218927 
L 311.637559 243.858732 
L 311.782848 245.038829 
L 312.14607 245.038829 
L 312.291359 246.218927 
L 312.436648 245.038829 
L 312.509292 246.218927 
L 312.581937 245.038829 
L 312.727225 246.218927 
L 313.308381 246.218927 
L 313.381025 245.038829 
L 313.598959 247.399024 
L 313.671603 246.218927 
L 313.744247 247.399024 
L 313.816892 246.218927 
L 313.889536 247.399024 
L 313.962181 246.218927 
L 314.107469 247.399024 
L 314.180114 246.218927 
L 314.325403 247.399024 
L 314.688625 247.399024 
L 314.761269 246.218927 
L 314.906558 248.579122 
L 315.051847 247.399024 
L 315.487714 247.399024 
L 315.560358 248.579122 
L 315.633002 247.399024 
L 315.705647 248.579122 
L 315.778291 247.399024 
L 315.92358 248.579122 
L 316.432091 248.579122 
L 316.504736 249.75922 
L 316.57738 248.579122 
L 316.650024 249.75922 
L 316.795313 248.579122 
L 316.940602 249.75922 
L 317.013247 249.75922 
L 317.085891 248.579122 
L 317.23118 249.75922 
L 317.303824 248.579122 
L 317.376469 250.939317 
L 317.449113 249.75922 
L 317.957624 249.75922 
L 318.030269 250.939317 
L 318.102913 249.75922 
L 318.248202 250.939317 
L 318.320846 250.939317 
L 318.466135 249.75922 
L 318.611424 250.939317 
L 319.337868 250.939317 
L 319.483157 249.75922 
L 319.628446 250.939317 
L 319.70109 250.939317 
L 319.773735 249.75922 
L 319.846379 252.119415 
L 319.919024 250.939317 
L 320.136957 250.939317 
L 320.282246 252.119415 
L 320.35489 252.119415 
L 320.500179 250.939317 
L 320.645468 250.939317 
L 320.718112 252.119415 
L 320.863401 250.939317 
L 321.00869 252.119415 
L 321.081334 252.119415 
L 321.226623 253.299512 
L 321.371912 252.119415 
L 321.444557 253.299512 
L 321.517201 252.119415 
L 321.589845 253.299512 
L 321.66249 252.119415 
L 321.807779 253.299512 
L 321.880423 252.119415 
L 321.953068 253.299512 
L 322.025712 252.119415 
L 322.171001 253.299512 
L 322.243645 252.119415 
L 322.388934 253.299512 
L 322.461579 252.119415 
L 322.606867 253.299512 
L 322.97009 253.299512 
L 323.115378 254.47961 
L 323.188023 253.299512 
L 323.333312 254.47961 
L 323.4786 253.299512 
L 323.623889 254.47961 
L 324.350334 254.47961 
L 324.495622 255.659707 
L 324.640911 254.47961 
L 324.713556 254.47961 
L 324.858845 255.659707 
L 324.931489 254.47961 
L 325.004133 255.659707 
L 325.076778 254.47961 
L 325.149422 255.659707 
L 325.294711 254.47961 
L 325.367356 255.659707 
L 325.44 254.47961 
L 325.585289 255.659707 
L 325.657933 255.659707 
L 325.730578 254.47961 
L 325.875867 255.659707 
L 326.384378 255.659707 
L 326.457022 256.839805 
L 326.602311 255.659707 
L 326.7476 256.839805 
L 326.965533 256.839805 
L 327.110822 255.659707 
L 327.256111 256.839805 
L 327.328755 255.659707 
L 327.4014 258.019902 
L 327.474044 256.839805 
L 327.619333 256.839805 
L 327.691977 258.019902 
L 327.764622 256.839805 
L 327.837266 258.019902 
L 327.90991 255.659707 
L 328.055199 258.019902 
L 328.127844 258.019902 
L 328.273133 256.839805 
L 328.345777 256.839805 
L 328.491066 258.019902 
L 328.56371 256.839805 
L 328.708999 258.019902 
L 328.781644 258.019902 
L 328.854288 256.839805 
L 328.926932 258.019902 
L 328.999577 256.839805 
L 329.144866 258.019902 
L 329.362799 258.019902 
L 329.435443 256.839805 
L 329.580732 258.019902 
L 329.726021 258.019902 
L 329.798666 259.2 
L 329.87131 258.019902 
L 329.943954 259.2 
L 330.089243 258.019902 
L 330.234532 259.2 
L 330.307177 258.019902 
L 330.452465 259.2 
L 330.888332 259.2 
L 330.960976 260.380098 
L 331.033621 259.2 
L 331.106265 260.380098 
L 331.251554 259.2 
L 331.324199 259.2 
L 331.469487 260.380098 
L 331.614776 259.2 
L 331.760065 260.380098 
L 331.905354 260.380098 
L 332.050643 259.2 
L 332.123287 260.380098 
L 332.268576 259.2 
L 332.413865 259.2 
L 332.559154 261.560195 
L 332.631798 259.2 
L 332.777087 261.560195 
L 332.849731 259.2 
L 332.922376 260.380098 
L 333.140309 260.380098 
L 333.212954 261.560195 
L 333.358242 260.380098 
L 333.503531 260.380098 
L 333.64882 261.560195 
L 333.721465 260.380098 
L 333.794109 261.560195 
L 333.939398 260.380098 
L 334.084687 261.560195 
L 334.30262 261.560195 
L 334.375264 260.380098 
L 334.520553 261.560195 
L 334.593198 260.380098 
L 334.738487 261.560195 
L 335.029064 261.560195 
L 335.101709 262.740293 
L 335.174353 260.380098 
L 335.246998 261.560195 
L 335.392286 261.560195 
L 335.464931 262.740293 
L 335.537575 261.560195 
L 335.682864 262.740293 
L 335.828153 261.560195 
L 335.973442 262.740293 
L 336.699886 262.740293 
L 336.772531 263.92039 
L 336.917819 262.740293 
L 337.135753 262.740293 
L 337.208397 263.92039 
L 337.353686 262.740293 
L 337.42633 262.740293 
L 337.571619 263.92039 
L 337.716908 263.92039 
L 337.862197 262.740293 
L 338.007486 263.92039 
L 338.370708 263.92039 
L 338.443352 262.740293 
L 338.588641 263.92039 
L 338.661286 263.92039 
L 338.73393 262.740293 
L 338.879219 263.92039 
L 339.678308 263.92039 
L 339.750952 265.100488 
L 339.823596 263.92039 
L 339.968885 265.100488 
L 340.114174 265.100488 
L 340.186819 263.92039 
L 340.259463 266.280585 
L 340.332107 263.92039 
L 340.404752 265.100488 
L 340.477396 266.280585 
L 340.622685 265.100488 
L 340.767974 265.100488 
L 340.840618 266.280585 
L 340.985907 265.100488 
L 341.058552 265.100488 
L 341.131196 266.280585 
L 341.276485 265.100488 
L 341.421774 266.280585 
L 341.567063 266.280585 
L 341.639707 265.100488 
L 341.712352 266.280585 
L 341.85764 265.100488 
L 341.930285 266.280585 
L 342.002929 265.100488 
L 342.075574 266.280585 
L 342.148218 265.100488 
L 342.293507 266.280585 
L 342.656729 266.280585 
L 342.729373 267.460683 
L 342.874662 266.280585 
L 343.16524 266.280585 
L 343.310529 267.460683 
L 343.383173 267.460683 
L 343.528462 266.280585 
L 343.601107 267.460683 
L 343.673751 266.280585 
L 343.746395 267.460683 
L 343.81904 266.280585 
L 343.964329 267.460683 
L 344.109618 267.460683 
L 344.254906 266.280585 
L 344.400195 267.460683 
L 344.47284 267.460683 
L 344.618129 266.280585 
L 344.690773 266.280585 
L 344.836062 267.460683 
L 344.981351 267.460683 
L 345.053995 268.64078 
L 345.12664 266.280585 
L 345.199284 267.460683 
L 345.417217 267.460683 
L 345.489862 268.64078 
L 345.562506 267.460683 
L 345.635151 268.64078 
L 345.707795 267.460683 
L 345.853084 268.64078 
L 345.925728 267.460683 
L 346.071017 268.64078 
L 346.361595 268.64078 
L 346.434239 267.460683 
L 346.579528 268.64078 
L 346.797461 268.64078 
L 346.870106 269.820878 
L 347.015395 268.64078 
L 347.378617 268.64078 
L 347.451261 269.820878 
L 347.59655 268.64078 
L 347.741839 268.64078 
L 347.887128 269.820878 
L 347.959772 268.64078 
L 348.032417 269.820878 
L 348.105061 268.64078 
L 348.25035 271.000976 
L 348.322994 271.000976 
L 348.395639 269.820878 
L 348.468283 271.000976 
L 348.540928 268.64078 
L 348.613572 271.000976 
L 348.686216 269.820878 
L 348.976794 269.820878 
L 349.122083 271.000976 
L 352.245793 271.000976 
L 352.318438 272.181073 
L 352.463727 271.000976 
L 352.536371 272.181073 
L 352.609015 271.000976 
L 352.754304 272.181073 
L 352.972238 272.181073 
L 353.044882 271.000976 
L 353.117526 272.181073 
L 353.190171 271.000976 
L 353.262815 272.181073 
L 353.33546 271.000976 
L 353.480749 272.181073 
L 353.698682 272.181073 
L 353.771326 271.000976 
L 353.916615 272.181073 
L 353.98926 271.000976 
L 354.061904 273.361171 
L 354.134548 272.181073 
L 354.352482 272.181073 
L 354.425126 273.361171 
L 354.570415 272.181073 
L 354.933637 272.181073 
L 355.006282 273.361171 
L 355.15157 272.181073 
L 355.369504 272.181073 
L 355.514793 273.361171 
L 355.660081 272.181073 
L 355.732726 272.181073 
L 355.878015 273.361171 
L 356.095948 273.361171 
L 356.241237 272.181073 
L 356.313881 273.361171 
L 356.386526 272.181073 
L 356.531814 273.361171 
L 356.677103 272.181073 
L 356.822392 273.361171 
L 357.040325 273.361171 
L 357.11297 274.541268 
L 357.258259 273.361171 
L 357.403548 273.361171 
L 357.548836 274.541268 
L 357.76677 274.541268 
L 357.912059 273.361171 
L 358.057347 274.541268 
L 358.129992 274.541268 
L 358.202636 273.361171 
L 358.275281 274.541268 
L 358.347925 273.361171 
L 358.493214 274.541268 
L 358.783792 274.541268 
L 358.856436 273.361171 
L 359.001725 274.541268 
L 359.219658 274.541268 
L 359.364947 275.721366 
L 359.510236 274.541268 
L 359.58288 274.541268 
L 359.655525 275.721366 
L 359.800814 274.541268 
L 359.873458 274.541268 
L 359.946103 275.721366 
L 360.091391 274.541268 
L 360.23668 274.541268 
L 360.309325 275.721366 
L 360.381969 274.541268 
L 360.527258 275.721366 
L 360.672547 274.541268 
L 360.817836 274.541268 
L 360.963124 275.721366 
L 361.035769 274.541268 
L 361.181058 275.721366 
L 361.326347 275.721366 
L 361.398991 274.541268 
L 361.54428 275.721366 
L 361.689569 275.721366 
L 361.762213 274.541268 
L 361.907502 275.721366 
L 361.980146 274.541268 
L 362.19808 276.901463 
L 362.343369 274.541268 
L 362.561302 276.901463 
L 362.706591 275.721366 
L 362.85188 275.721366 
L 362.924524 276.901463 
L 363.069813 275.721366 
L 363.215102 276.901463 
L 363.287746 275.721366 
L 363.433035 276.901463 
L 363.505679 275.721366 
L 363.650968 276.901463 
L 363.723613 275.721366 
L 363.868902 276.901463 
L 363.941546 276.901463 
L 364.01419 275.721366 
L 364.086835 276.901463 
L 364.232124 275.721366 
L 364.377413 276.901463 
L 364.813279 276.901463 
L 364.885924 278.081561 
L 364.958568 275.721366 
L 365.031212 276.901463 
L 365.249146 276.901463 
L 365.32179 275.721366 
L 365.467079 278.081561 
L 365.539723 276.901463 
L 365.685012 278.081561 
L 365.830301 276.901463 
L 365.902945 276.901463 
L 365.97559 278.081561 
L 366.048234 276.901463 
L 366.193523 278.081561 
L 366.411456 278.081561 
L 366.484101 276.901463 
L 366.62939 278.081561 
L 366.774679 278.081561 
L 366.847323 276.901463 
L 366.992612 278.081561 
L 367.137901 278.081561 
L 367.28319 276.901463 
L 367.428478 278.081561 
L 367.501123 278.081561 
L 367.573767 279.261659 
L 367.719056 278.081561 
L 367.791701 279.261659 
L 367.936989 278.081561 
L 368.590789 278.081561 
L 368.736078 279.261659 
L 368.808723 279.261659 
L 368.881367 278.081561 
L 369.026656 279.261659 
L 369.171945 278.081561 
L 369.317234 279.261659 
L 369.462522 278.081561 
L 369.535167 278.081561 
L 369.680456 279.261659 
L 369.7531 278.081561 
L 369.898389 279.261659 
L 370.479544 279.261659 
L 370.552189 280.441756 
L 370.697478 279.261659 
L 370.915411 279.261659 
L 370.988055 280.441756 
L 371.133344 279.261659 
L 371.423922 279.261659 
L 371.496566 280.441756 
L 371.641855 279.261659 
L 371.859788 279.261659 
L 371.932433 280.441756 
L 372.005077 279.261659 
L 372.077722 280.441756 
L 372.150366 279.261659 
L 372.295655 280.441756 
L 372.368299 280.441756 
L 372.440944 279.261659 
L 372.513588 280.441756 
L 372.586233 279.261659 
L 372.731522 280.441756 
L 372.804166 279.261659 
L 372.87681 280.441756 
L 372.949455 279.261659 
L 373.022099 280.441756 
L 373.167388 279.261659 
L 373.312677 280.441756 
L 373.385321 279.261659 
L 373.457966 280.441756 
L 373.53061 279.261659 
L 373.675899 280.441756 
L 373.893832 280.441756 
L 373.966477 279.261659 
L 374.039121 281.621854 
L 374.111766 280.441756 
L 374.329699 280.441756 
L 374.402343 281.621854 
L 374.474988 280.441756 
L 374.547632 281.621854 
L 374.692921 280.441756 
L 374.83821 280.441756 
L 374.910854 281.621854 
L 375.056143 280.441756 
L 375.128788 280.441756 
L 375.201432 281.621854 
L 375.274076 280.441756 
L 375.346721 281.621854 
L 375.419365 280.441756 
L 375.564654 281.621854 
L 375.927876 281.621854 
L 376.073165 280.441756 
L 376.218454 281.621854 
L 376.944898 281.621854 
L 377.017543 282.801951 
L 377.162832 280.441756 
L 377.30812 281.621854 
L 377.380765 281.621854 
L 377.453409 280.441756 
L 377.598698 281.621854 
L 377.671343 281.621854 
L 377.743987 280.441756 
L 377.889276 281.621854 
L 377.96192 280.441756 
L 378.107209 281.621854 
L 378.325142 281.621854 
L 378.470431 282.801951 
L 378.61572 281.621854 
L 378.761009 282.801951 
L 378.833653 282.801951 
L 378.906298 281.621854 
L 378.978942 282.801951 
L 379.051587 281.621854 
L 379.196876 282.801951 
L 379.26952 281.621854 
L 379.414809 282.801951 
L 379.632742 282.801951 
L 379.705386 283.982049 
L 379.850675 281.621854 
L 379.995964 282.801951 
L 380.286542 282.801951 
L 380.359186 283.982049 
L 380.504475 281.621854 
L 380.649764 283.982049 
L 380.795053 281.621854 
L 380.867697 283.982049 
L 380.940342 282.801951 
L 381.158275 282.801951 
L 381.230919 283.982049 
L 381.376208 281.621854 
L 381.594142 283.982049 
L 381.666786 283.982049 
L 381.73943 282.801951 
L 381.884719 283.982049 
L 381.957364 282.801951 
L 382.030008 283.982049 
L 382.175297 282.801951 
L 382.320586 282.801951 
L 382.465875 283.982049 
L 383.264963 283.982049 
L 383.410252 285.162146 
L 383.482897 282.801951 
L 383.555541 283.982049 
L 384.136697 283.982049 
L 384.209341 282.801951 
L 384.281985 283.982049 
L 384.35463 282.801951 
L 384.572563 285.162146 
L 384.863141 285.162146 
L 385.00843 283.982049 
L 385.081074 283.982049 
L 385.226363 285.162146 
L 385.299007 283.982049 
L 385.444296 285.162146 
L 385.589585 285.162146 
L 385.662229 283.982049 
L 385.807518 285.162146 
L 385.880163 285.162146 
L 386.025452 283.982049 
L 386.098096 283.982049 
L 386.243385 285.162146 
L 386.316029 285.162146 
L 386.388674 283.982049 
L 386.533963 285.162146 
L 386.606607 285.162146 
L 386.679251 283.982049 
L 386.82454 285.162146 
L 386.897185 285.162146 
L 386.969829 283.982049 
L 387.115118 285.162146 
L 387.187762 283.982049 
L 387.333051 285.162146 
L 387.623629 285.162146 
L 387.696273 283.982049 
L 387.914207 286.342244 
L 387.986851 286.342244 
L 388.13214 285.162146 
L 388.422718 285.162146 
L 388.495362 286.342244 
L 388.640651 285.162146 
L 388.713295 286.342244 
L 388.78594 285.162146 
L 388.931229 286.342244 
L 389.003873 285.162146 
L 389.076517 286.342244 
L 389.221806 285.162146 
L 389.294451 285.162146 
L 389.43974 286.342244 
L 389.512384 286.342244 
L 389.657673 285.162146 
L 389.802962 285.162146 
L 389.948251 286.342244 
L 390.020895 286.342244 
L 390.093539 285.162146 
L 390.166184 286.342244 
L 390.311473 285.162146 
L 390.456762 286.342244 
L 390.529406 285.162146 
L 390.674695 286.342244 
L 390.747339 286.342244 
L 390.819984 285.162146 
L 390.965273 286.342244 
L 391.110561 285.162146 
L 391.328495 287.522341 
L 391.473784 286.342244 
L 391.546428 286.342244 
L 391.619072 287.522341 
L 391.764361 286.342244 
L 391.90965 287.522341 
L 392.127583 285.162146 
L 392.272872 287.522341 
L 392.418161 286.342244 
L 392.490806 287.522341 
L 392.56345 286.342244 
L 392.636094 287.522341 
L 392.781383 286.342244 
L 392.926672 287.522341 
L 393.071961 286.342244 
L 393.580472 286.342244 
L 393.725761 287.522341 
L 393.798405 287.522341 
L 393.87105 286.342244 
L 394.016338 287.522341 
L 394.088983 287.522341 
L 394.161627 286.342244 
L 394.234272 287.522341 
L 394.379561 286.342244 
L 394.452205 286.342244 
L 394.597494 287.522341 
L 395.251294 287.522341 
L 395.323938 286.342244 
L 395.396583 287.522341 
L 395.469227 286.342244 
L 395.614516 288.702439 
L 395.759805 286.342244 
L 395.905094 288.702439 
L 396.050382 287.522341 
L 396.195671 287.522341 
L 396.268316 288.702439 
L 396.413605 287.522341 
L 396.704182 287.522341 
L 396.776827 288.702439 
L 396.922116 287.522341 
L 397.285338 287.522341 
L 397.357982 288.702439 
L 397.503271 287.522341 
L 397.64856 288.702439 
L 397.793849 288.702439 
L 397.939138 287.522341 
L 398.011782 288.702439 
L 398.084426 287.522341 
L 398.157071 288.702439 
L 398.229715 287.522341 
L 398.30236 289.882537 
L 398.375004 287.522341 
L 398.447648 288.702439 
L 398.520293 287.522341 
L 398.665582 288.702439 
L 398.810871 288.702439 
L 398.883515 287.522341 
L 399.101448 289.882537 
L 399.246737 288.702439 
L 399.609959 288.702439 
L 399.755248 289.882537 
L 399.827893 289.882537 
L 399.973181 288.702439 
L 400.11847 289.882537 
L 400.191115 288.702439 
L 400.263759 289.882537 
L 400.409048 288.702439 
L 400.481692 289.882537 
L 400.554337 288.702439 
L 400.626981 289.882537 
L 400.699626 288.702439 
L 400.77227 289.882537 
L 400.917559 288.702439 
L 401.062848 288.702439 
L 401.135492 289.882537 
L 401.208137 288.702439 
L 401.280781 289.882537 
L 401.353426 288.702439 
L 401.498714 289.882537 
L 401.716648 289.882537 
L 401.789292 288.702439 
L 401.861937 289.882537 
L 402.007225 288.702439 
L 402.152514 288.702439 
L 402.297803 289.882537 
L 402.370448 288.702439 
L 402.515736 289.882537 
L 403.024247 289.882537 
L 403.096892 288.702439 
L 403.242181 289.882537 
L 405.348869 289.882537 
L 405.421513 291.062634 
L 405.566802 289.882537 
L 405.930024 289.882537 
L 406.075313 291.062634 
L 406.220602 289.882537 
L 406.293247 289.882537 
L 406.438535 291.062634 
L 406.656469 291.062634 
L 406.729113 289.882537 
L 406.801758 291.062634 
L 406.947046 289.882537 
L 407.019691 289.882537 
L 407.092335 291.062634 
L 407.237624 289.882537 
L 407.310269 289.882537 
L 407.382913 291.062634 
L 407.455557 289.882537 
L 407.528202 291.062634 
L 407.673491 289.882537 
L 407.818779 289.882537 
L 407.891424 291.062634 
L 408.036713 289.882537 
L 408.109357 291.062634 
L 408.182002 289.882537 
L 408.32729 291.062634 
L 408.545224 291.062634 
L 408.617868 289.882537 
L 408.763157 291.062634 
L 409.053735 291.062634 
L 409.199024 289.882537 
L 409.271668 291.062634 
L 409.344312 289.882537 
L 409.489601 291.062634 
L 410.651912 291.062634 
L 410.724557 289.882537 
L 410.869845 291.062634 
L 411.233068 291.062634 
L 411.305712 292.242732 
L 411.378356 291.062634 
L 411.451001 292.242732 
L 411.523645 291.062634 
L 411.59629 292.242732 
L 411.668934 291.062634 
L 411.814223 292.242732 
L 411.886867 291.062634 
L 411.959512 292.242732 
L 412.032156 289.882537 
L 412.104801 292.242732 
L 412.177445 291.062634 
L 412.25009 291.062634 
L 412.322734 292.242732 
L 412.468023 291.062634 
L 412.613312 291.062634 
L 412.685956 292.242732 
L 412.7586 291.062634 
L 412.903889 292.242732 
L 412.976534 291.062634 
L 413.121823 292.242732 
L 413.267111 291.062634 
L 413.4124 292.242732 
L 413.485045 291.062634 
L 413.557689 292.242732 
L 413.630334 291.062634 
L 413.702978 292.242732 
L 413.848267 291.062634 
L 414.138845 291.062634 
L 414.211489 292.242732 
L 414.284133 291.062634 
L 414.356778 292.242732 
L 414.429422 291.062634 
L 414.574711 292.242732 
L 414.647356 292.242732 
L 414.72 293.422829 
L 414.72 293.422829 
" style="fill:none;stroke:#0000ff;stroke-linecap:square;"/>
   </g>
   <g id="line2d_24">
    <path clip-path="url(#pc98c305c14)" d="M 216.407253 307.584 
L 216.407253 41.472 
" style="fill:none;stroke:#000000;stroke-dasharray:1,1.65;stroke-dashoffset:0;"/>
   </g>
   <g id="patch_3">
    <path d="M 57.6 307.584 
L 57.6 41.472 
" style="fill:none;stroke:#000000;stroke-linecap:square;stroke-linejoin:miter;stroke-width:0.8;"/>
   </g>
   <g id="patch_4">
    <path d="M 414.72 307.584 
L 414.72 41.472 
" style="fill:none;stroke:#000000;stroke-linecap:square;stroke-linejoin:miter;stroke-width:0.8;"/>
   </g>
   <g id="patch_5">
    <path d="M 57.6 307.584 
L 414.72 307.584 
" style="fill:none;stroke:#000000;stroke-linecap:square;stroke-linejoin:miter;stroke-width:0.8;"/>
   </g>
   <g id="patch_6">
    <path d="M 57.6 41.472 
L 414.72 41.472 
" style="fill:none;stroke:#000000;stroke-linecap:square;stroke-linejoin:miter;stroke-width:0.8;"/>
   </g>
   <g id="text_14">
    <!-- charging time: 21.03200  -->
    <g transform="translate(254.160974 111.258678)scale(0.1 -0.1)">
     <defs>
      <path d="M 3122 3366 
L 3122 2828 
Q 2878 2963 2633 3030 
Q 2388 3097 2138 3097 
Q 1578 3097 1268 2742 
Q 959 2388 959 1747 
Q 959 1106 1268 751 
Q 1578 397 2138 397 
Q 2388 397 2633 464 
Q 2878 531 3122 666 
L 3122 134 
Q 2881 22 2623 -34 
Q 2366 -91 2075 -91 
Q 1284 -91 818 406 
Q 353 903 353 1747 
Q 353 2603 823 3093 
Q 1294 3584 2113 3584 
Q 2378 3584 2631 3529 
Q 2884 3475 3122 3366 
z
" id="DejaVuSans-63" transform="scale(0.015625)"/>
      <path d="M 3513 2113 
L 3513 0 
L 2938 0 
L 2938 2094 
Q 2938 2591 2744 2837 
Q 2550 3084 2163 3084 
Q 1697 3084 1428 2787 
Q 1159 2491 1159 1978 
L 1159 0 
L 581 0 
L 581 4863 
L 1159 4863 
L 1159 2956 
Q 1366 3272 1645 3428 
Q 1925 3584 2291 3584 
Q 2894 3584 3203 3211 
Q 3513 2838 3513 2113 
z
" id="DejaVuSans-68" transform="scale(0.015625)"/>
      <path d="M 2631 2963 
Q 2534 3019 2420 3045 
Q 2306 3072 2169 3072 
Q 1681 3072 1420 2755 
Q 1159 2438 1159 1844 
L 1159 0 
L 581 0 
L 581 3500 
L 1159 3500 
L 1159 2956 
Q 1341 3275 1631 3429 
Q 1922 3584 2338 3584 
Q 2397 3584 2469 3576 
Q 2541 3569 2628 3553 
L 2631 2963 
z
" id="DejaVuSans-72" transform="scale(0.015625)"/>
      <path d="M 603 3500 
L 1178 3500 
L 1178 0 
L 603 0 
L 603 3500 
z
M 603 4863 
L 1178 4863 
L 1178 4134 
L 603 4134 
L 603 4863 
z
" id="DejaVuSans-69" transform="scale(0.015625)"/>
      <path d="M 3513 2113 
L 3513 0 
L 2938 0 
L 2938 2094 
Q 2938 2591 2744 2837 
Q 2550 3084 2163 3084 
Q 1697 3084 1428 2787 
Q 1159 2491 1159 1978 
L 1159 0 
L 581 0 
L 581 3500 
L 1159 3500 
L 1159 2956 
Q 1366 3272 1645 3428 
Q 1925 3584 2291 3584 
Q 2894 3584 3203 3211 
Q 3513 2838 3513 2113 
z
" id="DejaVuSans-6e" transform="scale(0.015625)"/>
      <path d="M 3328 2828 
Q 3544 3216 3844 3400 
Q 4144 3584 4550 3584 
Q 5097 3584 5394 3201 
Q 5691 2819 5691 2113 
L 5691 0 
L 5113 0 
L 5113 2094 
Q 5113 2597 4934 2840 
Q 4756 3084 4391 3084 
Q 3944 3084 3684 2787 
Q 3425 2491 3425 1978 
L 3425 0 
L 2847 0 
L 2847 2094 
Q 2847 2600 2669 2842 
Q 2491 3084 2119 3084 
Q 1678 3084 1418 2786 
Q 1159 2488 1159 1978 
L 1159 0 
L 581 0 
L 581 3500 
L 1159 3500 
L 1159 2956 
Q 1356 3278 1631 3431 
Q 1906 3584 2284 3584 
Q 2666 3584 2933 3390 
Q 3200 3197 3328 2828 
z
" id="DejaVuSans-6d" transform="scale(0.015625)"/>
      <path d="M 750 794 
L 1409 794 
L 1409 0 
L 750 0 
L 750 794 
z
M 750 3309 
L 1409 3309 
L 1409 2516 
L 750 2516 
L 750 3309 
z
" id="DejaVuSans-3a" transform="scale(0.015625)"/>
      <path d="M 3122 3366 
L 3122 2828 
Q 2878 2963 2633 3030 
Q 2388 3097 2138 3097 
Q 1578 3097 1268 2742 
Q 959 2388 959 1747 
Q 959 1106 1268 751 
Q 1578 397 2138 397 
Q 2388 397 2633 464 
Q 2878 531 3122 666 
L 3122 134 
Q 2881 22 2623 -34 
Q 2366 -91 2075 -91 
Q 1284 -91 818 406 
Q 353 903 353 1747 
Q 353 2603 823 3093 
Q 1294 3584 2113 3584 
Q 2378 3584 2631 3529 
Q 2884 3475 3122 3366 
z
" id="DejaVuSans-441" transform="scale(0.015625)"/>
     </defs>
     <use xlink:href="#DejaVuSans-63"/>
     <use x="54.980469" xlink:href="#DejaVuSans-68"/>
     <use x="118.359375" xlink:href="#DejaVuSans-61"/>
     <use x="179.638672" xlink:href="#DejaVuSans-72"/>
     <use x="219.001953" xlink:href="#DejaVuSans-67"/>
     <use x="282.478516" xlink:href="#DejaVuSans-69"/>
     <use x="310.261719" xlink:href="#DejaVuSans-6e"/>
     <use x="373.640625" xlink:href="#DejaVuSans-67"/>
     <use x="437.117188" xlink:href="#DejaVuSans-20"/>
     <use x="468.904297" xlink:href="#DejaVuSans-74"/>
     <use x="508.113281" xlink:href="#DejaVuSans-69"/>
     <use x="535.896484" xlink:href="#DejaVuSans-6d"/>
     <use x="633.308594" xlink:href="#DejaVuSans-65"/>
     <use x="694.832031" xlink:href="#DejaVuSans-3a"/>
     <use x="728.523438" xlink:href="#DejaVuSans-20"/>
     <use x="760.310547" xlink:href="#DejaVuSans-32"/>
     <use x="823.933594" xlink:href="#DejaVuSans-31"/>
     <use x="887.556641" xlink:href="#DejaVuSans-2e"/>
     <use x="919.34375" xlink:href="#DejaVuSans-30"/>
     <use x="982.966797" xlink:href="#DejaVuSans-33"/>
     <use x="1046.589844" xlink:href="#DejaVuSans-32"/>
     <use x="1110.212891" xlink:href="#DejaVuSans-30"/>
     <use x="1173.835938" xlink:href="#DejaVuSans-30"/>
     <use x="1237.458984" xlink:href="#DejaVuSans-20"/>
     <use x="1269.246094" xlink:href="#DejaVuSans-441"/>
    </g>
   </g>
   <g id="text_15">
    <!-- discharge time:  26.26400  -->
    <g transform="translate(254.160974 120.377614)scale(0.1 -0.1)">
     <defs>
      <path d="M 2906 2969 
L 2906 4863 
L 3481 4863 
L 3481 0 
L 2906 0 
L 2906 525 
Q 2725 213 2448 61 
Q 2172 -91 1784 -91 
Q 1150 -91 751 415 
Q 353 922 353 1747 
Q 353 2572 751 3078 
Q 1150 3584 1784 3584 
Q 2172 3584 2448 3432 
Q 2725 3281 2906 2969 
z
M 947 1747 
Q 947 1113 1208 752 
Q 1469 391 1925 391 
Q 2381 391 2643 752 
Q 2906 1113 2906 1747 
Q 2906 2381 2643 2742 
Q 2381 3103 1925 3103 
Q 1469 3103 1208 2742 
Q 947 2381 947 1747 
z
" id="DejaVuSans-64" transform="scale(0.015625)"/>
      <path d="M 2834 3397 
L 2834 2853 
Q 2591 2978 2328 3040 
Q 2066 3103 1784 3103 
Q 1356 3103 1142 2972 
Q 928 2841 928 2578 
Q 928 2378 1081 2264 
Q 1234 2150 1697 2047 
L 1894 2003 
Q 2506 1872 2764 1633 
Q 3022 1394 3022 966 
Q 3022 478 2636 193 
Q 2250 -91 1575 -91 
Q 1294 -91 989 -36 
Q 684 19 347 128 
L 347 722 
Q 666 556 975 473 
Q 1284 391 1588 391 
Q 1994 391 2212 530 
Q 2431 669 2431 922 
Q 2431 1156 2273 1281 
Q 2116 1406 1581 1522 
L 1381 1569 
Q 847 1681 609 1914 
Q 372 2147 372 2553 
Q 372 3047 722 3315 
Q 1072 3584 1716 3584 
Q 2034 3584 2315 3537 
Q 2597 3491 2834 3397 
z
" id="DejaVuSans-73" transform="scale(0.015625)"/>
      <path d="M 2113 2584 
Q 1688 2584 1439 2293 
Q 1191 2003 1191 1497 
Q 1191 994 1439 701 
Q 1688 409 2113 409 
Q 2538 409 2786 701 
Q 3034 994 3034 1497 
Q 3034 2003 2786 2293 
Q 2538 2584 2113 2584 
z
M 3366 4563 
L 3366 3988 
Q 3128 4100 2886 4159 
Q 2644 4219 2406 4219 
Q 1781 4219 1451 3797 
Q 1122 3375 1075 2522 
Q 1259 2794 1537 2939 
Q 1816 3084 2150 3084 
Q 2853 3084 3261 2657 
Q 3669 2231 3669 1497 
Q 3669 778 3244 343 
Q 2819 -91 2113 -91 
Q 1303 -91 875 529 
Q 447 1150 447 2328 
Q 447 3434 972 4092 
Q 1497 4750 2381 4750 
Q 2619 4750 2861 4703 
Q 3103 4656 3366 4563 
z
" id="DejaVuSans-36" transform="scale(0.015625)"/>
     </defs>
     <use xlink:href="#DejaVuSans-64"/>
     <use x="63.476562" xlink:href="#DejaVuSans-69"/>
     <use x="91.259766" xlink:href="#DejaVuSans-73"/>
     <use x="143.359375" xlink:href="#DejaVuSans-63"/>
     <use x="198.339844" xlink:href="#DejaVuSans-68"/>
     <use x="261.71875" xlink:href="#DejaVuSans-61"/>
     <use x="322.998047" xlink:href="#DejaVuSans-72"/>
     <use x="362.361328" xlink:href="#DejaVuSans-67"/>
     <use x="425.837891" xlink:href="#DejaVuSans-65"/>
     <use x="487.361328" xlink:href="#DejaVuSans-20"/>
     <use x="519.148438" xlink:href="#DejaVuSans-74"/>
     <use x="558.357422" xlink:href="#DejaVuSans-69"/>
     <use x="586.140625" xlink:href="#DejaVuSans-6d"/>
     <use x="683.552734" xlink:href="#DejaVuSans-65"/>
     <use x="745.076172" xlink:href="#DejaVuSans-3a"/>
     <use x="778.767578" xlink:href="#DejaVuSans-20"/>
     <use x="810.554688" xlink:href="#DejaVuSans-20"/>
     <use x="842.341797" xlink:href="#DejaVuSans-32"/>
     <use x="905.964844" xlink:href="#DejaVuSans-36"/>
     <use x="969.587891" xlink:href="#DejaVuSans-2e"/>
     <use x="1001.375" xlink:href="#DejaVuSans-32"/>
     <use x="1064.998047" xlink:href="#DejaVuSans-36"/>
     <use x="1128.621094" xlink:href="#DejaVuSans-34"/>
     <use x="1192.244141" xlink:href="#DejaVuSans-30"/>
     <use x="1255.867188" xlink:href="#DejaVuSans-30"/>
     <use x="1319.490234" xlink:href="#DejaVuSans-20"/>
     <use x="1351.277344" xlink:href="#DejaVuSans-441"/>
    </g>
   </g>
   <g id="text_16">
    <!-- Charging and discharging process in RC circuit -->
    <g transform="translate(96.482812 35.472)scale(0.12 -0.12)">
     <defs>
      <path d="M 4122 4306 
L 4122 3641 
Q 3803 3938 3442 4084 
Q 3081 4231 2675 4231 
Q 1875 4231 1450 3742 
Q 1025 3253 1025 2328 
Q 1025 1406 1450 917 
Q 1875 428 2675 428 
Q 3081 428 3442 575 
Q 3803 722 4122 1019 
L 4122 359 
Q 3791 134 3420 21 
Q 3050 -91 2638 -91 
Q 1578 -91 968 557 
Q 359 1206 359 2328 
Q 359 3453 968 4101 
Q 1578 4750 2638 4750 
Q 3056 4750 3426 4639 
Q 3797 4528 4122 4306 
z
" id="DejaVuSans-43" transform="scale(0.015625)"/>
      <path d="M 1159 525 
L 1159 -1331 
L 581 -1331 
L 581 3500 
L 1159 3500 
L 1159 2969 
Q 1341 3281 1617 3432 
Q 1894 3584 2278 3584 
Q 2916 3584 3314 3078 
Q 3713 2572 3713 1747 
Q 3713 922 3314 415 
Q 2916 -91 2278 -91 
Q 1894 -91 1617 61 
Q 1341 213 1159 525 
z
M 3116 1747 
Q 3116 2381 2855 2742 
Q 2594 3103 2138 3103 
Q 1681 3103 1420 2742 
Q 1159 2381 1159 1747 
Q 1159 1113 1420 752 
Q 1681 391 2138 391 
Q 2594 391 2855 752 
Q 3116 1113 3116 1747 
z
" id="DejaVuSans-70" transform="scale(0.015625)"/>
      <path d="M 2841 2188 
Q 3044 2119 3236 1894 
Q 3428 1669 3622 1275 
L 4263 0 
L 3584 0 
L 2988 1197 
Q 2756 1666 2539 1819 
Q 2322 1972 1947 1972 
L 1259 1972 
L 1259 0 
L 628 0 
L 628 4666 
L 2053 4666 
Q 2853 4666 3247 4331 
Q 3641 3997 3641 3322 
Q 3641 2881 3436 2590 
Q 3231 2300 2841 2188 
z
M 1259 4147 
L 1259 2491 
L 2053 2491 
Q 2509 2491 2742 2702 
Q 2975 2913 2975 3322 
Q 2975 3731 2742 3939 
Q 2509 4147 2053 4147 
L 1259 4147 
z
" id="DejaVuSans-52" transform="scale(0.015625)"/>
      <path d="M 544 1381 
L 544 3500 
L 1119 3500 
L 1119 1403 
Q 1119 906 1312 657 
Q 1506 409 1894 409 
Q 2359 409 2629 706 
Q 2900 1003 2900 1516 
L 2900 3500 
L 3475 3500 
L 3475 0 
L 2900 0 
L 2900 538 
Q 2691 219 2414 64 
Q 2138 -91 1772 -91 
Q 1169 -91 856 284 
Q 544 659 544 1381 
z
M 1991 3584 
L 1991 3584 
z
" id="DejaVuSans-75" transform="scale(0.015625)"/>
     </defs>
     <use xlink:href="#DejaVuSans-43"/>
     <use x="69.824219" xlink:href="#DejaVuSans-68"/>
     <use x="133.203125" xlink:href="#DejaVuSans-61"/>
     <use x="194.482422" xlink:href="#DejaVuSans-72"/>
     <use x="233.845703" xlink:href="#DejaVuSans-67"/>
     <use x="297.322266" xlink:href="#DejaVuSans-69"/>
     <use x="325.105469" xlink:href="#DejaVuSans-6e"/>
     <use x="388.484375" xlink:href="#DejaVuSans-67"/>
     <use x="451.960938" xlink:href="#DejaVuSans-20"/>
     <use x="483.748047" xlink:href="#DejaVuSans-61"/>
     <use x="545.027344" xlink:href="#DejaVuSans-6e"/>
     <use x="608.40625" xlink:href="#DejaVuSans-64"/>
     <use x="671.882812" xlink:href="#DejaVuSans-20"/>
     <use x="703.669922" xlink:href="#DejaVuSans-64"/>
     <use x="767.146484" xlink:href="#DejaVuSans-69"/>
     <use x="794.929688" xlink:href="#DejaVuSans-73"/>
     <use x="847.029297" xlink:href="#DejaVuSans-63"/>
     <use x="902.009766" xlink:href="#DejaVuSans-68"/>
     <use x="965.388672" xlink:href="#DejaVuSans-61"/>
     <use x="1026.667969" xlink:href="#DejaVuSans-72"/>
     <use x="1066.03125" xlink:href="#DejaVuSans-67"/>
     <use x="1129.507812" xlink:href="#DejaVuSans-69"/>
     <use x="1157.291016" xlink:href="#DejaVuSans-6e"/>
     <use x="1220.669922" xlink:href="#DejaVuSans-67"/>
     <use x="1284.146484" xlink:href="#DejaVuSans-20"/>
     <use x="1315.933594" xlink:href="#DejaVuSans-70"/>
     <use x="1379.410156" xlink:href="#DejaVuSans-72"/>
     <use x="1418.273438" xlink:href="#DejaVuSans-6f"/>
     <use x="1479.455078" xlink:href="#DejaVuSans-63"/>
     <use x="1534.435547" xlink:href="#DejaVuSans-65"/>
     <use x="1595.958984" xlink:href="#DejaVuSans-73"/>
     <use x="1648.058594" xlink:href="#DejaVuSans-73"/>
     <use x="1700.158203" xlink:href="#DejaVuSans-20"/>
     <use x="1731.945312" xlink:href="#DejaVuSans-69"/>
     <use x="1759.728516" xlink:href="#DejaVuSans-6e"/>
     <use x="1823.107422" xlink:href="#DejaVuSans-20"/>
     <use x="1854.894531" xlink:href="#DejaVuSans-52"/>
     <use x="1919.376953" xlink:href="#DejaVuSans-43"/>
     <use x="1989.201172" xlink:href="#DejaVuSans-20"/>
     <use x="2020.988281" xlink:href="#DejaVuSans-63"/>
     <use x="2075.96875" xlink:href="#DejaVuSans-69"/>
     <use x="2103.751953" xlink:href="#DejaVuSans-72"/>
     <use x="2142.615234" xlink:href="#DejaVuSans-63"/>
     <use x="2197.595703" xlink:href="#DejaVuSans-75"/>
     <use x="2260.974609" xlink:href="#DejaVuSans-69"/>
     <use x="2288.757812" xlink:href="#DejaVuSans-74"/>
    </g>
   </g>
   <g id="legend_1">
    <g id="patch_7">
     <path d="M 291.204375 78.82825 
L 407.72 78.82825 
Q 409.72 78.82825 409.72 76.82825 
L 409.72 48.472 
Q 409.72 46.472 407.72 46.472 
L 291.204375 46.472 
Q 289.204375 46.472 289.204375 48.472 
L 289.204375 76.82825 
Q 289.204375 78.82825 291.204375 78.82825 
z
" style="fill:#ffffff;opacity:0.8;stroke:#cccccc;stroke-linejoin:miter;"/>
    </g>
    <g id="line2d_25">
     <path d="M 293.204375 54.570437 
L 313.204375 54.570437 
" style="fill:none;stroke:#0000ff;stroke-linecap:square;"/>
    </g>
    <g id="line2d_26"/>
    <g id="text_17">
     <!-- V(t) -->
     <g transform="translate(321.204375 58.070437)scale(0.1 -0.1)">
      <defs>
       <path d="M 1984 4856 
Q 1566 4138 1362 3434 
Q 1159 2731 1159 2009 
Q 1159 1288 1364 580 
Q 1569 -128 1984 -844 
L 1484 -844 
Q 1016 -109 783 600 
Q 550 1309 550 2009 
Q 550 2706 781 3412 
Q 1013 4119 1484 4856 
L 1984 4856 
z
" id="DejaVuSans-28" transform="scale(0.015625)"/>
       <path d="M 513 4856 
L 1013 4856 
Q 1481 4119 1714 3412 
Q 1947 2706 1947 2009 
Q 1947 1309 1714 600 
Q 1481 -109 1013 -844 
L 513 -844 
Q 928 -128 1133 580 
Q 1338 1288 1338 2009 
Q 1338 2731 1133 3434 
Q 928 4138 513 4856 
z
" id="DejaVuSans-29" transform="scale(0.015625)"/>
      </defs>
      <use xlink:href="#DejaVuSans-56"/>
      <use x="68.408203" xlink:href="#DejaVuSans-28"/>
      <use x="107.421875" xlink:href="#DejaVuSans-74"/>
      <use x="146.630859" xlink:href="#DejaVuSans-29"/>
     </g>
    </g>
    <g id="line2d_27">
     <path d="M 293.204375 69.248562 
L 313.204375 69.248562 
" style="fill:none;stroke:#000000;stroke-dasharray:1,1.65;stroke-dashoffset:0;"/>
    </g>
    <g id="line2d_28"/>
    <g id="text_18">
     <!-- start discharging -->
     <g transform="translate(321.204375 72.748562)scale(0.1 -0.1)">
      <use xlink:href="#DejaVuSans-73"/>
      <use x="52.099609" xlink:href="#DejaVuSans-74"/>
      <use x="91.308594" xlink:href="#DejaVuSans-61"/>
      <use x="152.587891" xlink:href="#DejaVuSans-72"/>
      <use x="193.701172" xlink:href="#DejaVuSans-74"/>
      <use x="232.910156" xlink:href="#DejaVuSans-20"/>
      <use x="264.697266" xlink:href="#DejaVuSans-64"/>
      <use x="328.173828" xlink:href="#DejaVuSans-69"/>
      <use x="355.957031" xlink:href="#DejaVuSans-73"/>
      <use x="408.056641" xlink:href="#DejaVuSans-63"/>
      <use x="463.037109" xlink:href="#DejaVuSans-68"/>
      <use x="526.416016" xlink:href="#DejaVuSans-61"/>
      <use x="587.695312" xlink:href="#DejaVuSans-72"/>
      <use x="627.058594" xlink:href="#DejaVuSans-67"/>
      <use x="690.535156" xlink:href="#DejaVuSans-69"/>
      <use x="718.318359" xlink:href="#DejaVuSans-6e"/>
      <use x="781.697266" xlink:href="#DejaVuSans-67"/>
     </g>
    </g>
   </g>
  </g>
 </g>
 <defs>
  <clipPath id="pc98c305c14">
   <rect height="266.112" width="357.12" x="57.6" y="41.472"/>
  </clipPath>
 </defs>
</svg>
